<svg width="90" height="150" viewBox="0 0 90 150" fill="none" xmlns="http://www.w3.org/2000/svg">
<g clip-path="url(#clip0_540_3128)">
<path d="M0.635742 0H89.084V88.4483H0.635742V0Z" fill="#E60000"/>
<path d="M0.635742 88.4482H89.084V126.724L45.1185 150L0.635742 126.724" fill="#002171"/>
<path d="M10.4634 121.552V116.121H12.1134L13.0961 119.824L14.0841 116.121H15.7341V121.552H14.6996V117.274L13.6289 121.552H12.5944L11.4979 117.274V121.552H10.4634ZM17.4617 118.821L16.5151 118.65C16.5905 118.312 16.7829 118.012 17.0582 117.802C17.4107 117.598 17.8155 117.502 18.222 117.528C18.5752 117.508 18.9284 117.566 19.2565 117.698C19.455 117.785 19.6215 117.931 19.7323 118.117C19.8532 118.412 19.9029 118.731 19.8772 119.048V120.259C19.8695 120.515 19.8868 120.771 19.9289 121.024C19.9714 121.204 20.0357 121.377 20.1203 121.541H19.0858C19.0478 121.441 19.015 121.34 18.9875 121.236C18.9807 121.194 18.9685 121.152 18.9513 121.112C18.7866 121.277 18.5917 121.409 18.3772 121.5C18.1729 121.587 17.9528 121.632 17.7306 121.629C17.379 121.649 17.0335 121.53 16.7686 121.298C16.5839 121.116 16.4653 120.877 16.4316 120.619C16.3979 120.361 16.4509 120.1 16.5823 119.876C16.6875 119.7 16.8423 119.56 17.0272 119.472C17.2941 119.359 17.5737 119.277 17.8599 119.229C18.2127 119.179 18.5594 119.092 18.8944 118.971V118.867C18.9015 118.79 18.8912 118.713 18.8644 118.64C18.8375 118.568 18.7948 118.502 18.7392 118.448C18.5771 118.343 18.3832 118.297 18.191 118.319C18.0383 118.309 17.8863 118.347 17.7565 118.428C17.6245 118.526 17.5268 118.664 17.4772 118.821H17.4617ZM18.853 119.659C18.7186 119.705 18.5065 119.757 18.2168 119.824C18.022 119.851 17.8331 119.91 17.6582 120C17.5933 120.038 17.5396 120.093 17.5024 120.158C17.4652 120.223 17.4458 120.297 17.4461 120.372C17.4457 120.443 17.4597 120.513 17.4873 120.578C17.5149 120.643 17.5554 120.701 17.6065 120.75C17.7225 120.855 17.8745 120.91 18.0306 120.905C18.2184 120.899 18.3994 120.834 18.5479 120.719C18.6696 120.639 18.7579 120.518 18.7961 120.378C18.8312 120.208 18.8451 120.034 18.8375 119.86L18.853 119.659ZM21.8427 121.552H20.8082V117.616H21.7754V118.174C21.8837 117.973 22.0335 117.796 22.2151 117.657C22.3521 117.569 22.5125 117.524 22.6754 117.528C22.9147 117.528 23.1492 117.594 23.353 117.719L23.0323 118.635C22.8902 118.532 22.7213 118.472 22.5461 118.464C22.4112 118.46 22.2792 118.504 22.1737 118.588C22.0476 118.698 21.962 118.848 21.9306 119.012C21.8602 119.452 21.8325 119.897 21.8479 120.341L21.8427 121.552ZM23.3944 121.64L24.7392 116.022H25.5203L24.1651 121.64H23.3944ZM29.3117 120.605V121.552H25.6496C25.6906 121.185 25.8125 120.832 26.0065 120.517C26.3405 120.034 26.7331 119.595 27.1754 119.209C27.4904 118.936 27.7827 118.639 28.0496 118.319C28.1881 118.135 28.2658 117.913 28.272 117.683C28.2775 117.491 28.2069 117.305 28.0754 117.166C28.006 117.102 27.9244 117.052 27.8356 117.02C27.7468 116.988 27.6525 116.974 27.5582 116.979C27.4624 116.977 27.367 116.993 27.2781 117.029C27.1891 117.065 27.1084 117.118 27.041 117.186C26.8975 117.371 26.821 117.599 26.8237 117.833L25.7892 117.724C25.7938 117.491 25.8473 117.261 25.9462 117.05C26.0451 116.839 26.1872 116.651 26.3634 116.498C26.7167 116.235 27.149 116.1 27.5892 116.116C27.8182 116.102 28.0475 116.134 28.2641 116.21C28.4807 116.285 28.6802 116.403 28.8513 116.555C29.0008 116.691 29.1192 116.857 29.1986 117.043C29.2781 117.229 29.3166 117.429 29.3117 117.631C29.3125 117.87 29.2668 118.108 29.1772 118.329C29.0719 118.58 28.9326 118.815 28.7634 119.028C28.552 119.271 28.3257 119.5 28.0858 119.716C27.7548 120.016 27.5686 120.233 27.4548 120.321C27.3752 120.407 27.3042 120.5 27.2427 120.6L29.3117 120.605ZM31.6703 116.095C31.9059 116.085 32.1405 116.132 32.3546 116.231C32.5686 116.33 32.7561 116.478 32.9013 116.664C33.309 117.326 33.4905 118.103 33.4186 118.878C33.4883 119.652 33.3069 120.428 32.9013 121.091C32.7531 121.273 32.5646 121.416 32.3508 121.512C32.1371 121.607 31.904 121.651 31.6703 121.64C31.4263 121.646 31.1845 121.594 30.9643 121.489C30.7441 121.384 30.5518 121.228 30.403 121.035C30.0772 120.631 29.9168 119.907 29.9168 118.862C29.8452 118.089 30.0268 117.314 30.4341 116.653C30.5812 116.469 30.77 116.322 30.9849 116.225C31.1998 116.128 31.4347 116.083 31.6703 116.095ZM31.6703 116.959C31.547 116.959 31.4278 117.003 31.3341 117.083C31.2153 117.199 31.1358 117.349 31.1065 117.512C31.0126 117.961 30.9743 118.42 30.9927 118.878C30.9745 119.316 31.0075 119.755 31.091 120.186C31.1232 120.365 31.2078 120.531 31.3341 120.662C31.4278 120.742 31.547 120.786 31.6703 120.786C31.7918 120.785 31.909 120.741 32.0013 120.662C32.1235 120.546 32.2051 120.394 32.2341 120.228C32.3719 119.343 32.3719 118.443 32.2341 117.559C32.2019 117.38 32.1173 117.214 31.991 117.083C31.9014 117.006 31.7882 116.962 31.6703 116.959ZM37.5617 120.579V121.552H33.9254C33.9665 121.185 34.0884 120.832 34.2823 120.517C34.6163 120.034 35.009 119.595 35.4513 119.209C35.7663 118.936 36.0586 118.639 36.3254 118.319C36.4639 118.135 36.5417 117.913 36.5479 117.683C36.5534 117.491 36.4827 117.305 36.3513 117.166C36.2818 117.102 36.2003 117.052 36.1115 117.02C36.0227 116.988 35.9283 116.974 35.8341 116.979C35.7383 116.977 35.6429 116.993 35.5539 117.029C35.4649 117.065 35.3842 117.118 35.3168 117.186C35.1734 117.371 35.0968 117.599 35.0996 117.833L34.0651 117.724C34.0697 117.491 34.1231 117.261 34.222 117.05C34.3209 116.839 34.4631 116.651 34.6392 116.498C34.9925 116.235 35.4249 116.1 35.8651 116.116C36.094 116.102 36.3234 116.134 36.5399 116.21C36.7565 116.285 36.9561 116.403 37.1272 116.555C37.2766 116.691 37.3951 116.857 37.4745 117.043C37.5539 117.229 37.5925 117.429 37.5875 117.631C37.5884 117.87 37.5427 118.108 37.453 118.329C37.3477 118.58 37.2085 118.815 37.0392 119.028C36.8278 119.271 36.6015 119.5 36.3617 119.716C36.0306 120.016 35.8444 120.233 35.7306 120.321C35.6511 120.407 35.58 120.5 35.5186 120.6L37.5617 120.579ZM38.1461 120.114L39.1806 119.99C39.1953 120.21 39.2868 120.419 39.4392 120.579C39.5065 120.648 39.5871 120.701 39.6762 120.737C39.7652 120.773 39.8606 120.789 39.9565 120.786C40.0549 120.784 40.1518 120.761 40.2409 120.72C40.33 120.678 40.4093 120.618 40.4737 120.543C40.6309 120.359 40.7123 120.123 40.7013 119.881C40.7125 119.653 40.6367 119.429 40.4892 119.255C40.4254 119.181 40.346 119.121 40.2566 119.081C40.1672 119.041 40.07 119.021 39.972 119.022C39.8101 119.026 39.6497 119.054 39.4961 119.105L39.6099 118.252C39.8375 118.277 40.066 118.212 40.2461 118.071C40.3202 118.007 40.379 117.927 40.4184 117.838C40.4578 117.748 40.4767 117.651 40.4737 117.553C40.4784 117.473 40.4666 117.393 40.439 117.317C40.4115 117.241 40.3687 117.172 40.3134 117.114C40.2565 117.059 40.1891 117.017 40.1153 116.989C40.0414 116.962 39.9628 116.95 39.8841 116.953C39.7987 116.951 39.7138 116.967 39.6346 116.999C39.5555 117.031 39.4837 117.079 39.4237 117.14C39.2877 117.289 39.2073 117.481 39.1961 117.683L38.2341 117.517C38.2808 117.239 38.3828 116.974 38.5341 116.736C38.6763 116.53 38.8733 116.367 39.103 116.266C39.3557 116.149 39.6315 116.09 39.9099 116.095C40.1395 116.087 40.368 116.13 40.5796 116.219C40.7913 116.308 40.981 116.442 41.1358 116.612C41.257 116.728 41.3539 116.866 41.4205 117.02C41.4871 117.174 41.5222 117.339 41.5237 117.507C41.5169 117.753 41.4396 117.992 41.3012 118.195C41.1628 118.399 40.969 118.558 40.7427 118.655C41.0357 118.707 41.2992 118.866 41.4823 119.1C41.674 119.337 41.7748 119.634 41.7668 119.938C41.771 120.166 41.7271 120.393 41.638 120.603C41.5489 120.814 41.4165 121.003 41.2496 121.159C40.9056 121.467 40.4641 121.644 40.0026 121.659C39.541 121.674 39.0889 121.526 38.7254 121.241C38.3992 120.952 38.1973 120.548 38.1617 120.114H38.1461ZM44.4979 120.114V119.079H46.5668V120.114H44.4979ZM49.2565 121.552V116.121H50.9065L51.8892 119.824L52.8772 116.121H54.5272V121.552H53.4927V117.274L52.4065 121.552H51.372L50.291 117.274V121.552H49.2565ZM56.2548 118.821L55.3082 118.65C55.3769 118.316 55.5597 118.016 55.8254 117.802C56.1779 117.598 56.5828 117.502 56.9892 117.528C57.3424 117.508 57.6957 117.566 58.0237 117.698C58.2223 117.785 58.3887 117.931 58.4996 118.117C58.6205 118.412 58.6701 118.731 58.6444 119.048V120.259C58.6367 120.515 58.6541 120.771 58.6961 121.024C58.7386 121.204 58.8029 121.377 58.8875 121.541H57.853C57.815 121.441 57.7822 121.34 57.7548 121.236C57.7479 121.194 57.7358 121.152 57.7186 121.112C57.5539 121.277 57.3589 121.409 57.1444 121.5C56.9402 121.587 56.72 121.632 56.4979 121.629C56.1462 121.649 55.8008 121.53 55.5358 121.298C55.3511 121.116 55.2326 120.877 55.1988 120.619C55.1651 120.361 55.2182 120.1 55.3496 119.876C55.4547 119.7 55.6095 119.56 55.7944 119.472C56.0614 119.359 56.3409 119.277 56.6272 119.229C56.98 119.179 57.3267 119.092 57.6617 118.971V118.867C57.6687 118.79 57.6585 118.713 57.6316 118.64C57.6048 118.568 57.562 118.502 57.5065 118.448C57.3443 118.343 57.1504 118.297 56.9582 118.319C56.8056 118.309 56.6536 118.347 56.5237 118.428C56.4013 118.53 56.3129 118.667 56.2703 118.821H56.2548ZM57.6461 119.659C57.5117 119.705 57.2996 119.757 57.0099 119.824C56.8151 119.851 56.6262 119.91 56.4513 120C56.3864 120.038 56.3327 120.093 56.2955 120.158C56.2583 120.223 56.2389 120.297 56.2392 120.372C56.2388 120.443 56.2528 120.513 56.2804 120.578C56.308 120.643 56.3485 120.701 56.3996 120.75C56.5156 120.855 56.6676 120.91 56.8237 120.905C57.0115 120.899 57.1925 120.834 57.341 120.719C57.4627 120.639 57.551 120.518 57.5892 120.378C57.6243 120.208 57.6382 120.034 57.6306 119.86L57.6461 119.659ZM60.6358 121.552H59.6013V117.616H60.5686V118.174C60.6768 117.973 60.8266 117.796 61.0082 117.657C61.1452 117.569 61.3056 117.524 61.4685 117.528C61.7078 117.528 61.9423 117.594 62.1461 117.719L61.8254 118.635C61.6833 118.532 61.5144 118.472 61.3392 118.464C61.2043 118.46 61.0723 118.504 60.9668 118.588C60.8407 118.698 60.7551 118.848 60.7237 119.012C60.6533 119.452 60.6256 119.897 60.641 120.341L60.6358 121.552ZM62.1875 121.64L63.5323 116.022H64.3134L62.9582 121.64H62.1875ZM68.1048 120.605V121.552H64.453C64.4941 121.185 64.616 120.832 64.8099 120.517C65.1439 120.034 65.5366 119.595 65.9789 119.209C66.2903 118.936 66.5791 118.638 66.8427 118.319C66.9812 118.135 67.0589 117.913 67.0651 117.683C67.0706 117.491 67 117.305 66.8685 117.166C66.7991 117.102 66.7175 117.052 66.6287 117.02C66.5399 116.988 66.4456 116.974 66.3513 116.979C66.2555 116.977 66.1601 116.993 66.0712 117.029C65.9822 117.065 65.9015 117.118 65.8341 117.186C65.6906 117.371 65.6141 117.599 65.6168 117.833L64.5823 117.724C64.5869 117.491 64.6404 117.261 64.7393 117.05C64.8382 116.839 64.9803 116.651 65.1565 116.498C65.5098 116.235 65.9421 116.1 66.3823 116.116C66.6113 116.102 66.8406 116.134 67.0572 116.21C67.2738 116.285 67.4733 116.403 67.6444 116.555C67.7939 116.691 67.9123 116.857 67.9917 117.043C68.0712 117.229 68.1097 117.429 68.1048 117.631C68.1056 117.87 68.0599 118.108 67.9703 118.329C67.865 118.58 67.7257 118.815 67.5565 119.028C67.3451 119.271 67.1188 119.5 66.8789 119.716C66.5479 120.016 66.3358 120.233 66.2479 120.321C66.1683 120.407 66.0973 120.5 66.0358 120.6L68.1048 120.605ZM70.4892 116.121C70.7249 116.111 70.9594 116.157 71.1735 116.256C71.3876 116.355 71.575 116.504 71.7203 116.69C72.128 117.352 72.3095 118.129 72.2375 118.903C72.3072 119.678 72.1259 120.454 71.7203 121.117C71.5721 121.298 71.3835 121.442 71.1698 121.537C70.956 121.633 70.723 121.677 70.4892 121.666C70.2427 121.674 69.9978 121.623 69.7747 121.518C69.5516 121.413 69.3568 121.256 69.2065 121.06C68.8806 120.657 68.7203 119.933 68.7203 118.888C68.6487 118.115 68.8302 117.34 69.2375 116.679C69.3809 116.492 69.5668 116.341 69.78 116.239C69.9931 116.138 70.2273 116.088 70.4634 116.095L70.4892 116.121ZM70.4892 116.985C70.366 116.985 70.2467 117.029 70.153 117.109C70.0343 117.225 69.9547 117.375 69.9254 117.538C69.8315 117.987 69.7933 118.445 69.8117 118.903C69.7935 119.342 69.8264 119.781 69.9099 120.212C69.9421 120.391 70.0267 120.557 70.153 120.688C70.2467 120.768 70.366 120.812 70.4892 120.812C70.6107 120.811 70.7279 120.767 70.8203 120.688C70.9424 120.572 71.024 120.42 71.053 120.253C71.1909 119.369 71.1909 118.469 71.053 117.585C71.0208 117.405 70.9362 117.24 70.8099 117.109C70.7174 117.017 70.5937 116.963 70.4634 116.959L70.4892 116.985ZM76.3806 120.605V121.552H72.7289C72.77 121.185 72.8918 120.832 73.0858 120.517C73.4198 120.034 73.8124 119.595 74.2548 119.209C74.5661 118.936 74.855 118.638 75.1185 118.319C75.257 118.135 75.3348 117.913 75.341 117.683C75.3465 117.491 75.2758 117.305 75.1444 117.166C75.0749 117.102 74.9934 117.052 74.9046 117.02C74.8158 116.988 74.7214 116.974 74.6272 116.979C74.5314 116.977 74.436 116.993 74.347 117.029C74.258 117.065 74.1773 117.118 74.1099 117.186C73.9665 117.371 73.8899 117.599 73.8927 117.833L72.8582 117.724C72.8628 117.491 72.9162 117.261 73.0151 117.05C73.114 116.839 73.2562 116.651 73.4323 116.498C73.7856 116.235 74.218 116.1 74.6582 116.116C74.8872 116.102 75.1165 116.134 75.3331 116.21C75.5496 116.285 75.7492 116.403 75.9203 116.555C76.0697 116.691 76.1882 116.857 76.2676 117.043C76.347 117.229 76.3856 117.429 76.3806 117.631C76.3815 117.87 76.3358 118.108 76.2461 118.329C76.1408 118.58 76.0016 118.815 75.8323 119.028C75.6209 119.271 75.3946 119.5 75.1548 119.716C74.8237 120.016 74.6117 120.233 74.5237 120.321C74.4442 120.407 74.3731 120.5 74.3117 120.6L76.3806 120.605ZM79.0496 121.578V120.486H76.8203V119.571L79.1789 116.121H80.053V119.566H80.7306V120.486H80.053V121.552L79.0496 121.578ZM79.0496 119.566V117.714L77.7979 119.566H79.0496Z" fill="white"/>
<path d="M23.0531 13.878V15.0832C23.0932 16.0837 22.9233 17.0815 22.5545 18.0124C22.1857 18.9433 21.6261 19.7867 20.9117 20.4883C20.1779 21.1831 19.3125 21.724 18.3665 22.0794C17.4204 22.4347 16.4129 22.5972 15.4031 22.5573C14.3005 22.5918 13.2024 22.402 12.1755 21.9992C11.1485 21.5964 10.2141 20.9891 9.42898 20.2142C8.66125 19.4732 8.05463 18.5817 7.64702 17.5956C7.23941 16.6096 7.03958 15.55 7.06002 14.4832C7.04742 13.4097 7.25024 12.3447 7.65648 11.351C8.06272 10.3574 8.66413 9.45529 9.42513 8.69815C10.1861 7.941 11.0913 7.34418 12.087 6.943C13.0827 6.54181 14.1487 6.34441 15.2221 6.36246C16.6111 6.34717 17.9808 6.68914 19.1997 7.35557C20.352 7.96776 21.3198 8.87668 22.0031 9.98833L19.3755 11.4987C18.9778 10.8328 18.3982 10.2945 17.7048 9.94695C16.9331 9.54228 16.0727 9.33608 15.2014 9.34695C14.5234 9.32442 13.8481 9.44237 13.2179 9.69339C12.5876 9.94441 12.0162 10.3231 11.5393 10.8056C11.064 11.2897 10.692 11.8652 10.4457 12.4974C10.1994 13.1295 10.0841 13.8051 10.1066 14.4832C10.0879 15.154 10.2072 15.8216 10.4572 16.4445C10.7073 17.0673 11.0826 17.6321 11.56 18.1038C12.0748 18.5899 12.6822 18.9673 13.3461 19.2135C14.0099 19.4596 14.7166 19.5695 15.4238 19.5366C16.4615 19.5759 17.487 19.302 18.3669 18.7504C19.1382 18.2375 19.7027 17.4678 19.96 16.578H15.2479V13.878H23.0531Z" fill="white"/>
<path d="M27.5738 12.8276C27.8106 12.154 28.2802 11.5872 28.898 11.2293C29.5253 10.8633 30.2407 10.6755 30.9669 10.6862V13.8931C30.1474 13.7769 29.3135 13.9606 28.6186 14.4104C28.2622 14.6697 27.9794 15.0173 27.798 15.4191C27.6166 15.8208 27.5429 16.2629 27.5842 16.7017V22.0345H24.7031V10.9138H27.5738V12.8276Z" fill="white"/>
<path d="M35.1979 17.6535C35.5875 19.0328 36.6323 19.7225 38.3323 19.7225C38.8068 19.7548 39.2821 19.6714 39.7172 19.4795C40.1524 19.2876 40.5345 18.9929 40.8306 18.6207L43.1427 19.9552C42.0392 21.5414 40.422 22.3363 38.291 22.3397C37.4797 22.379 36.6689 22.253 35.9078 21.9693C35.1466 21.6857 34.4511 21.2503 33.8634 20.6897C33.3114 20.1385 32.8779 19.4801 32.5897 18.7552C32.3015 18.0302 32.1647 17.254 32.1875 16.4742C32.1658 15.7004 32.3003 14.9301 32.5829 14.2093C32.8655 13.4886 33.2904 12.8322 33.8323 12.2794C34.3818 11.7216 35.0411 11.2841 35.7686 10.9947C36.4961 10.7053 37.2758 10.5704 38.0582 10.5983C38.8136 10.5769 39.5648 10.7172 40.2615 11.0098C40.9582 11.3024 41.5843 11.7405 42.0979 12.2949C43.16 13.4229 43.7328 14.9254 43.691 16.4742C43.6836 16.8701 43.6421 17.2647 43.5668 17.6535H35.1979ZM35.1565 15.4294H40.8461C40.7295 14.7557 40.3593 14.1523 39.8117 13.7432C39.3063 13.3734 38.6947 13.1774 38.0686 13.1845C37.3806 13.1582 36.7041 13.3661 36.1496 13.7742C35.6351 14.1927 35.2837 14.7785 35.1565 15.4294Z" fill="white"/>
<path d="M53.9114 10.9138H56.7769V22.0345H53.9114V20.7258C53.4791 21.2634 52.9256 21.6908 52.2963 21.9731C51.6669 22.2554 50.9796 22.3846 50.2907 22.35C49.5685 22.3561 48.8533 22.2069 48.1938 21.9124C47.5343 21.6179 46.9458 21.185 46.4683 20.6431C45.412 19.5159 44.8416 18.0184 44.8804 16.4741C44.8405 14.9297 45.411 13.4317 46.4683 12.3052C46.9458 11.7633 47.5343 11.3304 48.1938 11.0359C48.8533 10.7414 49.5685 10.5921 50.2907 10.5983C50.9796 10.5637 51.6669 10.6928 52.2963 10.9752C52.9256 11.2575 53.4791 11.6849 53.9114 12.2224V10.9138ZM48.6045 18.7345C49.202 19.2956 49.9909 19.608 50.8105 19.608C51.6302 19.608 52.4191 19.2956 53.0166 18.7345C53.3129 18.4393 53.5453 18.0863 53.6992 17.6974C53.8532 17.3085 53.9254 16.8921 53.9114 16.4741C53.9273 16.0576 53.8569 15.6422 53.7047 15.2542C53.5525 14.8661 53.3217 14.5137 53.0269 14.219C52.4312 13.6543 51.6417 13.3396 50.8209 13.3396C50.0001 13.3396 49.2106 13.6543 48.6149 14.219C48.325 14.5163 48.0989 14.8697 47.9504 15.2575C47.8019 15.6452 47.734 16.0592 47.7511 16.4741C47.7332 16.889 47.7996 17.3032 47.9463 17.6917C48.093 18.0802 48.3169 18.4349 48.6045 18.7345Z" fill="white"/>
<path d="M66.2372 13.6707H63.739V18.3259C63.7259 18.4781 63.745 18.6313 63.7949 18.7756C63.8448 18.92 63.9244 19.0522 64.0286 19.1638C64.2671 19.362 64.5668 19.4716 64.8769 19.4742C65.3352 19.4993 65.7945 19.4993 66.2528 19.4742V22.0604C64.2803 22.2776 62.8907 22.0914 62.0838 21.5018C61.2769 20.9121 60.8717 19.8535 60.8683 18.3259V13.6707H58.939V10.9138H60.8683V8.66384L63.739 7.80005V10.9035H66.2528L66.2372 13.6707Z" fill="white"/>
<path d="M14.8703 26.0738C15.57 26.0567 16.2658 26.1817 16.9157 26.4413C17.5656 26.7009 18.1561 27.0897 18.6514 27.5842C19.6356 28.5695 20.1884 29.9053 20.1884 31.298C20.1884 32.6906 19.6356 34.0264 18.6514 35.0117C18.1561 35.5062 17.5656 35.895 16.9157 36.1546C16.2658 36.4142 15.57 36.5392 14.8703 36.5221H12.1341V41.6376H9.06689V26.0738H14.8703ZM14.8703 33.6514C15.1733 33.658 15.4744 33.6011 15.7541 33.4844C16.0338 33.3677 16.286 33.1938 16.4945 32.9738C16.7076 32.7499 16.8744 32.4862 16.9853 32.1977C17.0963 31.9093 17.1492 31.6017 17.141 31.2928C17.1506 30.9836 17.0984 30.6757 16.9874 30.387C16.8763 30.0984 16.7088 29.8348 16.4945 29.6117C16.2829 29.3979 16.0295 29.23 15.75 29.1188C15.4705 29.0075 15.171 28.9552 14.8703 28.9652H12.1341V33.6773L14.8703 33.6514Z" fill="white"/>
<path d="M22.3599 41.8966V25.6604H25.2306V41.8966H22.3599Z" fill="white"/>
<path d="M36.4184 30.5172H39.2839V41.6378H36.4184V40.3447C35.9861 40.8823 35.4326 41.3097 34.8033 41.592C34.1739 41.8743 33.4866 42.0035 32.7977 41.9689C32.0755 41.975 31.3603 41.8258 30.7008 41.5313C30.0413 41.2367 29.4528 40.8039 28.9753 40.262C27.953 39.1139 27.3882 37.6303 27.3882 36.093C27.3882 34.5558 27.953 33.0721 28.9753 31.9241C29.4528 31.3822 30.0413 30.9493 30.7008 30.6548C31.3603 30.3603 32.0755 30.211 32.7977 30.2172C33.4866 30.1826 34.1739 30.3117 34.8033 30.5941C35.4326 30.8764 35.9861 31.3038 36.4184 31.8413V30.5172ZM31.1219 38.3379C31.4081 38.6274 31.7511 38.8546 32.1295 39.0051C32.5078 39.1555 32.9132 39.226 33.3201 39.212C33.7294 39.2259 34.1371 39.1555 34.5179 39.0052C34.8988 38.8548 35.2446 38.6276 35.5339 38.3379C36.1021 37.7233 36.4177 36.9171 36.4177 36.0801C36.4177 35.2431 36.1021 34.4369 35.5339 33.8223C35.2449 33.5319 34.8992 33.3039 34.5184 33.1527C34.1376 33.0014 33.7297 32.93 33.3201 32.943C32.9129 32.93 32.5073 33.0014 32.129 33.1528C31.7507 33.3041 31.4078 33.5321 31.1219 33.8223C30.5657 34.4429 30.2581 35.2468 30.2581 36.0801C30.2581 36.9134 30.5657 37.7173 31.1219 38.3379Z" fill="white"/>
<path d="M47.5857 41.9532C46.426 41.9416 45.2952 41.5901 44.3333 40.9422C43.3715 40.2943 42.6208 39.3785 42.1743 38.3081C41.7277 37.2378 41.605 36.06 41.8212 34.9206C42.0375 33.7812 42.5832 32.7303 43.3908 31.898C43.9351 31.3411 44.5888 30.9029 45.3108 30.6109C46.0327 30.3189 46.8072 30.1795 47.5857 30.2015C48.6234 30.1893 49.6448 30.4611 50.5391 30.9877C51.3987 31.4712 52.1036 32.1886 52.5719 33.0566L50.0943 34.4997C49.8705 34.0404 49.5088 33.6625 49.0598 33.4187C48.481 33.0927 47.813 32.9609 47.1538 33.0429C46.4946 33.1248 45.8791 33.4161 45.3977 33.8739C44.8583 34.4709 44.5597 35.2469 44.5597 36.0515C44.5597 36.8561 44.8583 37.632 45.3977 38.2291C45.6776 38.5098 46.0119 38.7303 46.3802 38.8771C46.7485 39.0239 47.1428 39.0938 47.5391 39.0825C48.0816 39.0927 48.617 38.9588 49.0908 38.6946C49.5381 38.4532 49.8995 38.0792 50.1253 37.6239L52.6132 39.0463C52.1237 39.9186 51.4092 40.6438 50.5443 41.1463C49.6505 41.681 48.6271 41.9601 47.5857 41.9532Z" fill="white"/>
<path d="M57.1291 37.2414C57.5187 38.638 58.5636 39.3276 60.2636 39.3104C60.7394 39.3409 61.2155 39.2551 61.6507 39.0604C62.086 38.8658 62.4673 38.5681 62.7618 38.1932L65.0739 39.5276C63.9739 41.1139 62.3567 41.9087 60.2222 41.9121C59.4098 41.9493 58.5983 41.8209 57.8372 41.5346C57.076 41.2482 56.381 40.81 55.7946 40.2466C55.2451 39.6951 54.8139 39.0372 54.5276 38.3132C54.2412 37.5893 54.1056 36.8145 54.1291 36.0363C54.1076 35.2629 54.2417 34.4931 54.5233 33.7725C54.805 33.0519 55.2285 32.3952 55.7687 31.8414C56.3202 31.285 56.9807 30.8485 57.7088 30.5593C58.4368 30.27 59.2168 30.1342 59.9998 30.1604C60.7551 30.139 61.5063 30.2793 62.203 30.5719C62.8998 30.8645 63.5259 31.3026 64.0394 31.857C65.1016 32.985 65.6743 34.4874 65.6325 36.0363C65.6286 36.4319 65.5905 36.8265 65.5187 37.2156L57.1291 37.2414ZM57.0877 35.0173H62.7773C62.6592 34.3442 62.2894 33.7413 61.7429 33.3311C61.2375 32.9614 60.6259 32.7654 59.9998 32.7725C59.3117 32.7453 58.6349 32.9533 58.0808 33.3621C57.5615 33.7831 57.2094 34.3755 57.0877 35.0328V35.0173Z" fill="white"/>
<path d="M18.584 45.9883V48.921H14.384V61.5521H11.3116V48.921H7.13232V45.9883H18.584Z" fill="white"/>
<path d="M27.4598 59.7983C26.9159 60.3535 26.2639 60.7914 25.5443 61.085C24.8246 61.3786 24.0524 61.5216 23.2753 61.5052C21.7169 61.5052 20.2224 60.8861 19.1204 59.7842C18.0185 58.6822 17.3994 57.1877 17.3994 55.6293C17.3994 54.0709 18.0185 52.5764 19.1204 51.4745C20.2224 50.3725 21.7169 49.7535 23.2753 49.7535C24.05 49.7459 24.8184 49.8926 25.5359 50.1849C26.2534 50.4773 26.9055 50.9095 27.4543 51.4563C28.0031 52.0032 28.4376 52.6538 28.7324 53.3702C29.0273 54.0866 29.1767 54.8546 29.1718 55.6293C29.1882 56.4046 29.0446 57.1748 28.75 57.8921C28.4555 58.6094 28.0162 59.2583 27.4598 59.7983ZM21.1287 57.8379C21.4085 58.1209 21.7433 58.3436 22.1125 58.4922C22.4817 58.6407 22.8774 58.7121 23.2753 58.7017C23.6746 58.7117 24.0718 58.6402 24.4426 58.4917C24.8134 58.3432 25.1501 58.1207 25.4322 57.8379C25.7194 57.5481 25.9445 57.2028 26.0939 56.823C26.2433 56.4433 26.3138 56.0372 26.3011 55.6293C26.3142 55.223 26.2439 54.8182 26.0944 54.4401C25.945 54.062 25.7196 53.7186 25.4322 53.431C25.1513 53.1459 24.8151 52.9212 24.4441 52.7709C24.0732 52.6205 23.6754 52.5477 23.2753 52.5569C22.8766 52.5473 22.4803 52.6199 22.1109 52.7703C21.7416 52.9207 21.4073 53.1457 21.1287 53.431C20.8484 53.7223 20.6297 54.0671 20.4857 54.4448C20.3417 54.8225 20.2754 55.2254 20.2908 55.6293C20.2758 56.0348 20.3422 56.4391 20.4862 56.8185C20.6301 57.1978 20.8486 57.5445 21.1287 57.8379Z" fill="white"/>
<path d="M11.7976 81.3616L7.43213 65.7979H10.6597L13.639 77.3375L16.8873 65.7979H19.5149L22.7787 77.3375L25.7632 65.7979H28.9856L24.6304 81.3616H21.139L18.2218 71.0892L15.289 81.3616H11.7976Z" fill="white"/>
<path d="M38.7358 79.7638C37.9125 80.5816 36.8654 81.1372 35.7267 81.3607C34.588 81.5842 33.4086 81.4655 32.3373 81.0196C31.2659 80.5737 30.3506 79.8206 29.7067 78.8552C29.0628 77.8897 28.7192 76.7553 28.7192 75.5949C28.7192 74.4344 29.0628 73.3 29.7067 72.3346C30.3506 71.3691 31.2659 70.616 32.3373 70.1701C33.4086 69.7242 34.588 69.6055 35.7267 69.829C36.8654 70.0525 37.9125 70.6081 38.7358 71.4259C39.8325 72.5363 40.4475 74.0341 40.4475 75.5949C40.4475 77.1556 39.8325 78.6534 38.7358 79.7638ZM32.4099 77.7983C32.6874 78.0834 33.0209 78.3078 33.3895 78.4573C33.7581 78.6069 34.1537 78.6784 34.5513 78.6673C34.9511 78.6774 35.3488 78.6056 35.7198 78.4561C36.0907 78.3067 36.4271 78.0828 36.7082 77.7983C37.2698 77.2031 37.5827 76.4158 37.5827 75.5974C37.5827 74.7791 37.2698 73.9918 36.7082 73.3966C36.4281 73.1104 36.092 72.8851 35.7209 72.7347C35.3498 72.5843 34.9516 72.512 34.5513 72.5224C34.1532 72.511 33.7571 72.5829 33.3883 72.7334C33.0196 72.8839 32.6864 73.1098 32.4099 73.3966C31.8574 73.9963 31.5507 74.782 31.5507 75.5974C31.5507 76.4129 31.8574 77.1985 32.4099 77.7983Z" fill="white"/>
<path d="M45.315 72.1549C45.5534 71.4822 46.0226 70.9159 46.6392 70.5566C47.2692 70.1998 47.9843 70.021 48.7081 70.0394V73.2514C47.8868 73.1296 47.0493 73.3137 46.3547 73.7687C45.9983 74.0268 45.7154 74.3735 45.5339 74.7744C45.3525 75.1754 45.2788 75.6167 45.3202 76.0549V81.3618H42.4443V70.2411H45.315V72.1549Z" fill="white"/>
<path d="M60.9771 81.3099H57.6409L53.5909 76.2564V81.3099H50.7202V65.7461H53.5909V75.0564L57.4237 70.1685H60.8478L56.3685 75.6616L60.9771 81.3099Z" fill="white"/>
<path d="M65.1047 80.69L64.5875 79.8107H64.2047V80.69H63.6875V78.1504H64.722C64.9439 78.1556 65.1553 78.2462 65.3123 78.4031C65.4693 78.5601 65.5598 78.7715 65.5651 78.9935C65.5648 79.1493 65.516 79.3012 65.4254 79.428C65.3374 79.5624 65.2139 79.6699 65.0685 79.7383L65.6375 80.69H65.1047ZM64.2151 78.6211V79.3711H64.7323C64.7771 79.3724 64.8217 79.3638 64.8628 79.3459C64.904 79.328 64.9406 79.3013 64.9703 79.2676C65.038 79.1946 65.075 79.0983 65.0737 78.9987C65.0748 78.9006 65.0377 78.806 64.9703 78.7349C64.9419 78.699 64.9057 78.6701 64.8645 78.6504C64.8232 78.6307 64.778 78.6207 64.7323 78.6211H64.2151Z" fill="white"/>
<path d="M64.5149 76.9707C64.0441 76.9697 63.5835 77.1084 63.1916 77.3692C62.7996 77.63 62.4939 78.0012 62.313 78.4359C62.1321 78.8706 62.0842 79.3491 62.1755 79.811C62.2667 80.2729 62.4929 80.6973 62.8254 81.0306C63.158 81.3639 63.5819 81.591 64.0436 81.6832C64.5053 81.7755 64.9839 81.7286 65.419 81.5487C65.8541 81.3688 66.226 81.0638 66.4876 80.6724C66.7493 80.281 66.889 79.8208 66.889 79.35C66.8904 79.0376 66.8299 78.728 66.7112 78.4391C66.5924 78.1501 66.4176 77.8875 66.197 77.6664C65.9763 77.4452 65.7141 77.2699 65.4254 77.1505C65.1367 77.0311 64.8273 76.97 64.5149 76.9707ZM64.5149 77.6121C64.8586 77.6121 65.1946 77.714 65.4804 77.905C65.7662 78.0959 65.989 78.3674 66.1205 78.6849C66.252 79.0025 66.2865 79.3519 66.2194 79.6891C66.1523 80.0262 65.9868 80.3359 65.7438 80.5789C65.5007 80.822 65.191 80.9875 64.8539 81.0546C64.5168 81.1216 64.1673 81.0872 63.8498 80.9557C63.5322 80.8241 63.2608 80.6014 63.0698 80.3156C62.8789 80.0298 62.7769 79.6938 62.7769 79.35C62.7783 78.8895 62.9618 78.4483 63.2875 78.1226C63.6131 77.797 64.0543 77.6135 64.5149 77.6121Z" fill="white"/>
<path d="M11.2497 94.2668C11.8765 94.2613 12.5001 94.3574 13.0962 94.5513C13.659 94.7269 14.1848 95.0038 14.648 95.3686C15.1058 95.7241 15.4905 96.165 15.7807 96.6668C16.0966 97.1961 16.3024 97.7837 16.3859 98.3944L14.0531 98.5961C13.9458 97.9081 13.5886 97.2838 13.0497 96.8427C12.5071 96.4339 11.8406 96.2239 11.1617 96.2479C10.7141 96.243 10.2702 96.3311 9.8583 96.5065C9.48157 96.675 9.14749 96.926 8.88072 97.241C8.591 97.5702 8.37262 97.9559 8.23934 98.3737C7.93239 99.3625 7.93239 100.421 8.23934 101.41C8.38823 101.827 8.62055 102.209 8.92209 102.532C9.20895 102.83 9.5589 103.06 9.94623 103.205C10.3474 103.358 10.7737 103.435 11.2031 103.432C11.8781 103.452 12.5404 103.246 13.0859 102.848C13.6182 102.421 13.9678 101.807 14.0635 101.131L16.4117 101.332C16.3184 101.938 16.1076 102.52 15.7911 103.044C15.4977 103.54 15.1133 103.975 14.6583 104.327C14.1931 104.687 13.6677 104.962 13.1066 105.139C12.5111 105.328 11.8898 105.422 11.2652 105.419C10.5123 105.426 9.76414 105.298 9.05658 105.041C8.40292 104.795 7.80628 104.418 7.30313 103.934C6.80119 103.437 6.4099 102.839 6.15485 102.181C5.86981 101.429 5.73111 100.631 5.74623 99.8272C5.73263 99.0239 5.87128 98.2254 6.15485 97.4737C6.40734 96.8136 6.79897 96.2156 7.30313 95.7203C7.80618 95.2484 8.40141 94.8856 9.05141 94.6548C9.75514 94.3953 10.4996 94.2639 11.2497 94.2668Z" fill="white"/>
<path d="M19.8148 102.186C19.8055 102.597 19.9599 102.995 20.2441 103.293C20.3941 103.435 20.5715 103.545 20.7653 103.616C20.9592 103.687 21.1655 103.718 21.3717 103.707C21.6877 103.719 22.001 103.644 22.2769 103.489C22.5055 103.355 22.674 103.139 22.7476 102.884L24.8838 102.988C24.8132 103.338 24.6725 103.671 24.47 103.965C24.2626 104.262 24.0054 104.521 23.7096 104.731C23.394 104.956 23.0449 105.131 22.6752 105.248C22.2742 105.368 21.8575 105.427 21.4389 105.424C20.9103 105.427 20.3851 105.338 19.8872 105.16C19.4276 104.992 19.0095 104.728 18.6614 104.384C18.3171 104.032 18.0494 103.613 17.8752 103.153C17.496 102.1 17.496 100.948 17.8752 99.8945C18.0483 99.4383 18.3163 99.024 18.6614 98.679C19.0006 98.3367 19.41 98.072 19.8614 97.9031C20.8352 97.5583 21.8979 97.5583 22.8717 97.9031C23.2979 98.0626 23.6832 98.3153 23.9993 98.6428C24.3226 98.9753 24.5697 99.3741 24.7234 99.8117C24.9002 100.31 24.9877 100.835 24.9821 101.363V102.201L19.8148 102.186ZM21.3665 99.279C20.9656 99.264 20.5744 99.4049 20.2752 99.6721C19.9858 99.9677 19.8242 100.365 19.8252 100.779H22.8303C22.8354 100.381 22.702 99.9931 22.4527 99.6824C22.3108 99.5388 22.1389 99.4282 21.9494 99.3585C21.7599 99.2888 21.5574 99.2616 21.3562 99.279H21.3665Z" fill="white"/>
<path d="M30.6049 99.7397C30.0797 99.7118 29.563 99.8816 29.1567 100.216C28.9836 100.372 28.8475 100.565 28.758 100.781C28.6686 100.996 28.6281 101.229 28.6394 101.462V105.259H26.498V97.7587H28.567V98.6069C28.7518 98.3411 28.994 98.1201 29.2756 97.9604C29.6935 97.7567 30.1562 97.6623 30.6205 97.6863L30.6049 99.7397Z" fill="white"/>
<path d="M34.6183 102.321C34.6015 102.484 34.6236 102.649 34.683 102.802C34.7423 102.955 34.8372 103.091 34.9597 103.2C35.1873 103.372 35.4663 103.461 35.7511 103.454C35.9011 103.454 36.0252 103.454 36.1287 103.454C36.2194 103.44 36.3092 103.421 36.3977 103.397V105.28L35.9115 105.336C35.6829 105.36 35.4532 105.371 35.2235 105.368C34.8455 105.371 34.469 105.319 34.1063 105.212C33.7943 105.122 33.504 104.968 33.2528 104.762C33.0097 104.544 32.8218 104.271 32.7046 103.966C32.568 103.604 32.503 103.219 32.5132 102.833V99.5486H31.1528V97.7279H32.5287V95.2451H34.639V97.7279H36.3873V99.5486H34.6339L34.6183 102.321Z" fill="white"/>
<path d="M38.7874 94.0504C38.9557 94.0473 39.1229 94.0788 39.2786 94.1428C39.4343 94.2069 39.5752 94.3022 39.6926 94.4229C39.8699 94.6007 39.9904 94.8272 40.0388 95.0737C40.0872 95.3201 40.0612 95.5754 39.9642 95.8071C39.8672 96.0388 39.7036 96.2364 39.494 96.3749C39.2845 96.5134 39.0386 96.5865 38.7874 96.5849C38.6175 96.5903 38.4485 96.5595 38.2915 96.4944C38.1345 96.4292 37.9932 96.3314 37.8771 96.2073C37.7595 96.0911 37.6664 95.9525 37.6033 95.7997C37.5402 95.6469 37.5084 95.483 37.5098 95.3177C37.5083 95.1503 37.5405 94.9844 37.6045 94.8298C37.6685 94.6752 37.7629 94.535 37.8822 94.4177C38 94.3038 38.1365 94.2111 38.2857 94.1435C38.4442 94.0766 38.6154 94.0448 38.7874 94.0504ZM37.7271 105.259V97.7591H39.8477V105.259H37.7271Z" fill="white"/>
<path d="M45.429 93.9211H45.8325C45.9463 93.9211 46.0549 93.9211 46.1635 93.9573V95.7832L45.9463 95.7573H45.6721C45.3378 95.745 45.0122 95.8659 44.7669 96.0935C44.6483 96.2007 44.5548 96.3328 44.4931 96.4804C44.4314 96.6279 44.403 96.7872 44.41 96.947V97.759H46.1532V99.5797H44.41V105.259H42.3101V99.5953H40.9497V97.759H42.3101V96.9935C42.3023 96.5574 42.3777 96.1238 42.5325 95.7159C42.6751 95.3526 42.8898 95.0218 43.1635 94.7435C43.4411 94.469 43.7745 94.2573 44.1411 94.1228C44.5547 93.9782 44.991 93.9099 45.429 93.9211Z" fill="white"/>
<path d="M48.5117 94.05C48.68 94.0469 48.8472 94.0783 49.0029 94.1424C49.1586 94.2064 49.2995 94.3018 49.4169 94.4224C49.6195 94.6672 49.7233 94.9789 49.7077 95.2963C49.6921 95.6137 49.5583 95.9138 49.3326 96.1375C49.107 96.3612 48.8057 96.4924 48.4882 96.5052C48.1707 96.5181 47.8599 96.4117 47.6169 96.2069C47.4993 96.0907 47.4062 95.9521 47.3431 95.7993C47.2801 95.6465 47.2483 95.4826 47.2497 95.3173C47.247 95.14 47.2805 94.964 47.3479 94.8C47.4148 94.6504 47.5076 94.5139 47.6221 94.3966C47.7398 94.2827 47.8763 94.19 48.0255 94.1224C48.1808 94.0647 48.3464 94.04 48.5117 94.05ZM47.4772 105.259V97.7586H49.5928V105.259H47.4772Z" fill="white"/>
<path d="M54.8737 97.6291C55.3051 97.6279 55.7342 97.6925 56.1461 97.8204C56.5363 97.9456 56.9008 98.1401 57.222 98.3946C57.5364 98.6477 57.7998 98.9584 57.9978 99.3101C58.2152 99.6823 58.3575 100.093 58.4168 100.52L56.3478 100.701C56.3169 100.344 56.1459 100.013 55.872 99.7808C55.593 99.5473 55.2373 99.4256 54.8737 99.4394C54.6426 99.4333 54.4131 99.4789 54.2019 99.5728C53.9907 99.6668 53.8032 99.8068 53.653 99.9825C53.3396 100.434 53.1716 100.971 53.1716 101.521C53.1716 102.071 53.3396 102.608 53.653 103.06C53.9361 103.359 54.3179 103.545 54.7279 103.584C55.1378 103.623 55.548 103.513 55.8823 103.272C56.1481 103.042 56.318 102.721 56.3582 102.372L58.4272 102.569C58.355 102.988 58.2116 103.392 58.003 103.764C57.8066 104.109 57.5449 104.413 57.2323 104.658C56.9121 104.907 56.5517 105.1 56.1668 105.227C55.7521 105.359 55.3191 105.424 54.8841 105.419C54.355 105.426 53.8291 105.337 53.3323 105.155C52.8786 104.981 52.4637 104.719 52.1116 104.384C51.7676 104.036 51.4999 103.621 51.3254 103.164C50.9325 102.102 50.9325 100.935 51.3254 99.8739C51.5023 99.4153 51.7716 98.998 52.1168 98.648C52.4633 98.3084 52.88 98.0489 53.3375 97.8877C53.8305 97.7123 54.3505 97.6248 54.8737 97.6291Z" fill="white"/>
<path d="M62.7407 97.5776C63.5813 97.518 64.4117 97.7911 65.0528 98.338C65.3348 98.6361 65.5517 98.9896 65.6897 99.3761C65.8278 99.7626 65.8839 100.174 65.8545 100.583V105.207H63.8166V104.602C63.568 104.855 63.2696 105.054 62.9401 105.186C62.6107 105.317 62.2574 105.379 61.9028 105.367C61.2513 105.403 60.6088 105.202 60.0924 104.804C59.8596 104.599 59.677 104.344 59.5586 104.058C59.4402 103.772 59.3892 103.462 59.4097 103.154C59.3993 102.793 59.4831 102.437 59.6528 102.119C59.8149 101.84 60.042 101.604 60.3149 101.431C60.609 101.247 60.9328 101.116 61.2718 101.043C61.6463 100.961 62.0268 100.909 62.4097 100.888L63.7442 100.816V100.526C63.7442 99.7552 63.4183 99.3725 62.7718 99.3725C62.6244 99.3583 62.4758 99.3784 62.3376 99.4314C62.1994 99.4843 62.0753 99.5686 61.9752 99.6777C61.8157 99.8671 61.7294 100.108 61.7321 100.355L59.6114 100.267C59.6123 99.9323 59.6883 99.6018 59.8338 99.3001C59.9801 98.9746 60.1914 98.6824 60.4545 98.4414C60.7365 98.1737 61.0688 97.9645 61.4321 97.8259C61.8483 97.66 62.2926 97.5757 62.7407 97.5776ZM62.6114 102.264C62.3365 102.273 62.0675 102.346 61.8252 102.476C61.725 102.533 61.643 102.617 61.589 102.719C61.5349 102.82 61.511 102.935 61.52 103.05C61.5129 103.15 61.5315 103.25 61.5741 103.34C61.6166 103.431 61.6817 103.509 61.7631 103.567C61.9567 103.671 62.1746 103.721 62.3942 103.712C62.7399 103.726 63.0799 103.62 63.3562 103.412C63.4884 103.302 63.5924 103.162 63.6599 103.004C63.7273 102.845 63.7562 102.673 63.7442 102.502V102.176L62.6114 102.264Z" fill="white"/>
<path d="M73.0494 105.31V104.545C72.8149 104.827 72.5172 105.05 72.1804 105.197C71.7516 105.389 71.2849 105.483 70.8149 105.471C70.3154 105.476 69.8197 105.383 69.3563 105.197C68.924 105.021 68.5369 104.751 68.2235 104.405C67.896 104.05 67.6428 103.633 67.4787 103.179C67.2957 102.665 67.2047 102.122 67.2098 101.576C67.2037 101.031 67.2948 100.49 67.4787 99.9775C67.6404 99.5207 67.8939 99.1018 68.2235 98.7465C68.54 98.4045 68.9263 98.1346 69.3563 97.9551C69.8197 97.7687 70.3154 97.6755 70.8149 97.681C71.2522 97.6709 71.6869 97.7501 72.0925 97.9137C72.4108 98.0365 72.6985 98.2271 72.9356 98.4724V94.0603H75.0356V105.31H73.0494ZM71.1666 99.4913C70.9232 99.4836 70.6809 99.5281 70.4561 99.6218C70.2313 99.7155 70.0291 99.8562 69.8632 100.034C69.5335 100.48 69.3556 101.019 69.3556 101.573C69.3556 102.127 69.5335 102.667 69.8632 103.112C70.2063 103.451 70.6676 103.644 71.15 103.65C71.6325 103.656 72.0983 103.474 72.4494 103.143C72.6267 102.955 72.764 102.733 72.853 102.49C72.9419 102.247 72.9805 101.989 72.9666 101.731V101.379C72.9804 101.122 72.9417 100.864 72.8528 100.623C72.7638 100.381 72.6266 100.159 72.4494 99.9724C72.2813 99.8098 72.0817 99.6832 71.8629 99.6005C71.6441 99.5178 71.4107 99.4806 71.177 99.4913H71.1666Z" fill="white"/>
<path d="M79.8618 97.6294C80.7024 97.5697 81.5328 97.8428 82.1739 98.3897C82.4559 98.6879 82.6728 99.0414 82.8108 99.4278C82.9488 99.8143 83.005 100.225 82.9756 100.635V105.259H80.9377V104.654C80.6891 104.907 80.3907 105.106 80.0612 105.237C79.7318 105.369 79.3785 105.431 79.0239 105.419C78.3724 105.454 77.7301 105.254 77.2135 104.855C76.9807 104.651 76.798 104.396 76.6796 104.11C76.5612 103.824 76.5103 103.514 76.5308 103.205C76.5204 102.845 76.6042 102.489 76.7739 102.171C76.936 101.892 77.1631 101.656 77.436 101.483C77.7305 101.3 78.0541 101.169 78.3929 101.095C78.7678 101.015 79.1482 100.963 79.5308 100.94L80.8653 100.867V100.578C80.8653 99.807 80.5394 99.4242 79.8928 99.4242C79.7456 99.4104 79.5971 99.4308 79.4589 99.4837C79.3208 99.5366 79.1967 99.6207 79.0963 99.7294C78.9391 99.9202 78.8532 100.16 78.8532 100.407L76.7325 100.319C76.7359 99.9844 76.8118 99.6544 76.9549 99.3518C77.1031 99.0274 77.314 98.7356 77.5756 98.4932C77.8589 98.2271 78.1908 98.0182 78.5532 97.8777C78.9694 97.7117 79.4137 97.6274 79.8618 97.6294ZM79.7325 102.316C79.4595 102.327 79.1925 102.399 78.9515 102.528C78.8499 102.583 78.7665 102.667 78.7114 102.769C78.6563 102.871 78.6319 102.986 78.6411 103.102C78.634 103.202 78.6526 103.302 78.6952 103.392C78.7377 103.483 78.8028 103.561 78.8842 103.619C79.0778 103.723 79.2957 103.773 79.5153 103.764C79.861 103.778 80.201 103.672 80.4773 103.464C80.6095 103.354 80.7135 103.214 80.781 103.055C80.8484 102.897 80.8773 102.725 80.8653 102.554V102.228L79.7325 102.316Z" fill="white"/>
<path d="M33.4857 132.041C33.7323 132.038 33.9781 132.071 34.215 132.14C34.4248 132.2 34.6202 132.302 34.7892 132.44C34.9525 132.58 35.0802 132.758 35.1616 132.957C35.2552 133.183 35.301 133.426 35.2961 133.671C35.3051 133.912 35.2497 134.151 35.1357 134.364C35.0411 134.544 34.9023 134.697 34.7323 134.809C34.9632 134.905 35.1597 135.069 35.2961 135.279C35.4681 135.541 35.5532 135.851 35.5392 136.164C35.5458 136.418 35.4963 136.671 35.3944 136.904C35.3028 137.101 35.1706 137.278 35.0064 137.421C34.834 137.568 34.6334 137.679 34.4168 137.747C34.1729 137.816 33.9204 137.851 33.6668 137.85H31.0806V132.041H33.4857ZM32.2599 134.369H33.4133C33.5841 134.378 33.7526 134.327 33.8892 134.224C33.9551 134.163 34.0061 134.087 34.0383 134.003C34.0706 133.918 34.0833 133.828 34.0754 133.738C34.0826 133.647 34.068 133.555 34.0329 133.471C33.9979 133.386 33.9433 133.311 33.8737 133.252C33.7245 133.141 33.5421 133.085 33.3564 133.091H32.2599V134.369ZM32.2599 136.779H33.5168C33.7197 136.789 33.9206 136.735 34.0909 136.624C34.1613 136.555 34.2171 136.472 34.2553 136.38C34.2934 136.289 34.313 136.191 34.313 136.091C34.313 135.992 34.2934 135.894 34.2553 135.803C34.2171 135.711 34.1613 135.628 34.0909 135.559C33.9312 135.441 33.736 135.38 33.5375 135.388H32.2599V136.779Z" fill="white"/>
<path d="M38.6683 135.76H37.6959V137.829H36.4907V132.041H38.9735C39.2325 132.04 39.4897 132.084 39.7338 132.17C39.9539 132.245 40.155 132.367 40.3235 132.527C40.4931 132.69 40.6254 132.888 40.7114 133.107C40.8085 133.361 40.8559 133.631 40.8511 133.903C40.8583 134.264 40.7709 134.621 40.5976 134.938C40.4377 135.212 40.1976 135.43 39.9097 135.563L41.1459 137.844H39.7959L38.6683 135.76ZM38.8287 134.694C38.9377 134.7 39.0469 134.685 39.1499 134.648C39.2528 134.612 39.3476 134.556 39.4287 134.482C39.5072 134.407 39.5683 134.315 39.6076 134.213C39.6469 134.111 39.6635 134.002 39.6562 133.893C39.6636 133.782 39.6471 133.671 39.6079 133.568C39.5686 133.464 39.5075 133.371 39.4287 133.293C39.2723 133.15 39.0662 133.074 38.8545 133.081H37.7166V134.684L38.8287 134.694Z" fill="white"/>
<path d="M45.9823 137.844L45.5064 136.727H43.0909L42.6151 137.844H41.3013L43.7944 132.041H44.8289L47.3271 137.844H45.9823ZM45.0875 135.75L44.3013 133.893L43.5202 135.75H45.0875Z" fill="white"/>
<path d="M49.4737 131.953C49.7641 131.951 50.0534 131.991 50.3323 132.072C50.5769 132.148 50.805 132.269 51.0047 132.429C51.1921 132.581 51.3424 132.774 51.4444 132.993C51.5553 133.226 51.6169 133.48 51.6254 133.738L50.3944 133.805C50.3979 133.695 50.3781 133.586 50.3362 133.484C50.2943 133.382 50.2312 133.291 50.1513 133.215C49.971 133.06 49.7374 132.98 49.4995 132.993C49.2674 132.979 49.0379 133.048 48.853 133.189C48.7799 133.254 48.7224 133.333 48.6848 133.423C48.6472 133.513 48.6304 133.61 48.6357 133.707C48.6325 133.805 48.6539 133.903 48.6978 133.991C48.7533 134.066 48.8216 134.131 48.8995 134.183C49.0083 134.246 49.1248 134.294 49.2461 134.327C49.3961 134.374 49.5668 134.415 49.7633 134.467C50.0582 134.545 50.3323 134.627 50.5754 134.715C50.7964 134.797 51.0052 134.908 51.1961 135.046C51.3654 135.17 51.5035 135.331 51.5995 135.517C51.6986 135.72 51.7465 135.943 51.7392 136.169C51.746 136.446 51.6876 136.72 51.5685 136.97C51.4589 137.186 51.3015 137.374 51.1082 137.519C50.9054 137.67 50.6753 137.781 50.4306 137.845C50.1602 137.914 49.8821 137.949 49.603 137.948C49.2904 137.95 48.979 137.91 48.6771 137.829C48.4115 137.755 48.1611 137.634 47.9375 137.472C47.7336 137.316 47.569 137.114 47.4564 136.883C47.3373 136.632 47.2754 136.358 47.2754 136.081L48.4961 136.019C48.5007 136.147 48.5306 136.274 48.584 136.391C48.6445 136.499 48.7253 136.594 48.8219 136.67C48.9257 136.751 49.0431 136.812 49.1685 136.851C49.3102 136.889 49.4563 136.909 49.603 136.908C49.832 136.918 50.0593 136.864 50.2599 136.753C50.3461 136.699 50.4157 136.622 50.4613 136.531C50.5069 136.439 50.5267 136.338 50.5185 136.236C50.5209 136.133 50.4927 136.032 50.4374 135.946C50.3821 135.859 50.3023 135.791 50.2081 135.75C49.9279 135.612 49.6329 135.506 49.3288 135.434C49.065 135.372 48.8116 135.3 48.584 135.227C48.3673 135.152 48.1619 135.048 47.9737 134.917C47.8007 134.797 47.6588 134.637 47.5599 134.451C47.4561 134.232 47.4065 133.991 47.415 133.748C47.415 133.515 47.4553 133.284 47.534 133.065C47.6217 132.852 47.7539 132.66 47.9219 132.501C48.11 132.331 48.3297 132.199 48.5685 132.114C48.858 132.005 49.1647 131.951 49.4737 131.953Z" fill="white"/>
<path d="M52.6807 137.844V132.041H53.9117V137.844H52.6807Z" fill="white"/>
<path d="M58.6911 136.779V137.844H54.9463V132.041H56.1515V136.779H58.6911Z" fill="white"/>
<path d="M84.2528 132.931V134.922H83.4252V132.931H82.52V132.129H85.1631V132.931H84.2528ZM88.0183 134.922V133.763L87.3873 134.886H87.0148L86.3838 133.763V134.922H85.5614V132.129H86.2649L87.2011 133.81L88.1373 132.129H88.8511V134.922H88.0183Z" fill="#002171"/>
</g>
<defs>
<clipPath id="clip0_540_3128">
<rect width="88.4483" height="150" fill="white" transform="translate(0.635742)"/>
</clipPath>
</defs>
</svg>
