<svg width="72" height="72" viewBox="0 0 72 72" fill="none" xmlns="http://www.w3.org/2000/svg">
<path d="M66.342 8.62402H19.6332C18.9867 8.62402 18.4624 9.14827 18.4624 9.79486C18.4624 10.4415 18.9867 10.9657 19.6332 10.9657H66.3417C68.1704 10.9657 69.658 12.4535 69.658 14.2819V57.7188C69.658 59.5475 68.1701 61.035 66.3417 61.035H29.287C28.6404 61.035 28.1161 61.5592 28.1161 62.2058C28.1161 62.8524 28.6404 63.3767 29.287 63.3767H66.3417C69.4616 63.3767 71.9996 60.8387 71.9998 57.7188V14.2819C71.9999 11.162 69.4618 8.62402 66.342 8.62402Z" fill="white"/>
<path d="M24.6038 61.035H5.6579C3.82921 61.035 2.34168 59.5472 2.34168 57.7188V14.2818C2.34168 12.4532 3.82921 10.9657 5.6579 10.9657H14.95C15.5965 10.9657 16.1208 10.4415 16.1208 9.79486C16.1208 9.14827 15.5965 8.62402 14.95 8.62402H5.6579C2.53799 8.62402 0 11.162 0 14.2818V57.7188C0 60.8385 2.53799 63.3765 5.6579 63.3765H24.6037C25.2503 63.3765 25.7745 62.8523 25.7745 62.2057C25.7745 61.5591 25.2504 61.035 24.6038 61.035Z" fill="white"/>
<path d="M64.1435 23.7207H7.8559C7.20931 23.7207 6.68506 24.245 6.68506 24.8915V55.3407C6.68506 55.9873 7.20931 56.5116 7.8559 56.5116H49.5171C50.1637 56.5116 50.6879 55.9873 50.6879 55.3407C50.6879 54.6941 50.1637 54.1699 49.5171 54.1699H9.02674V26.0624H62.9726V54.1699H54.2005C53.5539 54.1699 53.0296 54.6941 53.0296 55.3407C53.0296 55.9873 53.5539 56.5116 54.2005 56.5116H64.1435C64.7901 56.5116 65.3143 55.9873 65.3143 55.3407V24.8915C65.3143 24.245 64.7901 23.7207 64.1435 23.7207Z" fill="white"/>
<path d="M63.6444 17.3427C63.6444 18.4985 62.7074 19.4354 61.5517 19.4354C60.3959 19.4354 59.459 18.4985 59.459 17.3427C59.459 16.1869 60.3959 15.25 61.5517 15.25C62.7074 15.25 63.6444 16.1869 63.6444 17.3427Z" stroke="white"/>
<path d="M55.8358 17.3427C55.8358 18.4985 54.8989 19.4354 53.7431 19.4354C52.5873 19.4354 51.6504 18.4985 51.6504 17.3427C51.6504 16.1869 52.5873 15.25 53.7431 15.25C54.8989 15.25 55.8358 16.1869 55.8358 17.3427Z" stroke="white"/>
<path d="M48.0287 17.3427C48.0287 18.4985 47.0917 19.4354 45.936 19.4354C44.7802 19.4354 43.8433 18.4985 43.8433 17.3427C43.8433 16.1869 44.7802 15.25 45.936 15.25C47.0917 15.25 48.0287 16.1869 48.0287 17.3427Z" stroke="white"/>
</svg>
