<svg width="74" height="75" viewBox="0 0 74 75" fill="none" xmlns="http://www.w3.org/2000/svg">
<path d="M37.409 18.3687C41.9291 18.3687 45.5934 14.7045 45.5934 10.1844C45.5934 5.66427 41.9291 2 37.409 2C32.8889 2 29.2246 5.66427 29.2246 10.1844C29.2246 14.7045 32.8889 18.3687 37.409 18.3687Z" stroke="#FF6004" stroke-width="3"/>
<path d="M37.409 18.3687C41.9291 18.3687 45.5934 14.7045 45.5934 10.1844C45.5934 5.66427 41.9291 2 37.409 2C32.8889 2 29.2246 5.66427 29.2246 10.1844C29.2246 14.7045 32.8889 18.3687 37.409 18.3687Z" stroke="url(#paint0_linear_540_2920)" stroke-width="3"/>
<path d="M64.283 46.733C68.8031 46.733 72.4674 43.0687 72.4674 38.5486C72.4674 34.0285 68.8031 30.3643 64.283 30.3643C59.7629 30.3643 56.0986 34.0285 56.0986 38.5486C56.0986 43.0687 59.7629 46.733 64.283 46.733Z" stroke="#FF6004" stroke-width="3"/>
<path d="M64.283 46.733C68.8031 46.733 72.4674 43.0687 72.4674 38.5486C72.4674 34.0285 68.8031 30.3643 64.283 30.3643C59.7629 30.3643 56.0986 34.0285 56.0986 38.5486C56.0986 43.0687 59.7629 46.733 64.283 46.733Z" stroke="url(#paint1_linear_540_2920)" stroke-width="3"/>
<path d="M37.409 73.4098C41.9291 73.4098 45.5934 69.7455 45.5934 65.2254C45.5934 60.7053 41.9291 57.041 37.409 57.041C32.8889 57.041 29.2246 60.7053 29.2246 65.2254C29.2246 69.7455 32.8889 73.4098 37.409 73.4098Z" stroke="#FF6004" stroke-width="3"/>
<path d="M37.409 73.4098C41.9291 73.4098 45.5934 69.7455 45.5934 65.2254C45.5934 60.7053 41.9291 57.041 37.409 57.041C32.8889 57.041 29.2246 60.7053 29.2246 65.2254C29.2246 69.7455 32.8889 73.4098 37.409 73.4098Z" stroke="url(#paint2_linear_540_2920)" stroke-width="3"/>
<path d="M10.1844 61.4C14.7045 61.4 18.3687 57.7357 18.3687 53.2156C18.3687 48.6955 14.7045 45.0312 10.1844 45.0312C5.66427 45.0312 2 48.6955 2 53.2156C2 57.7357 5.66427 61.4 10.1844 61.4Z" stroke="#FF6004" stroke-width="3"/>
<path d="M10.1844 61.4C14.7045 61.4 18.3687 57.7357 18.3687 53.2156C18.3687 48.6955 14.7045 45.0312 10.1844 45.0312C5.66427 45.0312 2 48.6955 2 53.2156C2 57.7357 5.66427 61.4 10.1844 61.4Z" stroke="url(#paint3_linear_540_2920)" stroke-width="3"/>
<path d="M10.1844 29.3941C14.7045 29.3941 18.3687 25.7299 18.3687 21.2098C18.3687 16.6897 14.7045 13.0254 10.1844 13.0254C5.66427 13.0254 2 16.6897 2 21.2098C2 25.7299 5.66427 29.3941 10.1844 29.3941Z" stroke="#FF6004" stroke-width="3"/>
<path d="M10.1844 29.3941C14.7045 29.3941 18.3687 25.7299 18.3687 21.2098C18.3687 16.6897 14.7045 13.0254 10.1844 13.0254C5.66427 13.0254 2 16.6897 2 21.2098C2 25.7299 5.66427 29.3941 10.1844 29.3941Z" stroke="url(#paint4_linear_540_2920)" stroke-width="3"/>
<path d="M37.3955 41.8809C41.0458 41.8809 44.0049 38.9217 44.0049 35.2715C44.0049 31.6212 41.0458 28.6621 37.3955 28.6621C33.7452 28.6621 30.7861 31.6212 30.7861 35.2715C30.7861 38.9217 33.7452 41.8809 37.3955 41.8809Z" stroke="#FF6004" stroke-width="3"/>
<path d="M37.3955 41.8809C41.0458 41.8809 44.0049 38.9217 44.0049 35.2715C44.0049 31.6212 41.0458 28.6621 37.3955 28.6621C33.7452 28.6621 30.7861 31.6212 30.7861 35.2715C30.7861 38.9217 33.7452 41.8809 37.3955 41.8809Z" stroke="url(#paint5_linear_540_2920)" stroke-width="3"/>
<path d="M17.2295 17.033L29.5061 12.2939" stroke="#FF6004" stroke-width="3"/>
<path d="M17.2295 17.033L29.5061 12.2939" stroke="url(#paint6_linear_540_2920)" stroke-width="3"/>
<path d="M43.1465 16.0342L58.4465 32.8107" stroke="#FF6004" stroke-width="3"/>
<path d="M43.1465 16.0342L58.4465 32.8107" stroke="url(#paint7_linear_540_2920)" stroke-width="3"/>
<path d="M59.2764 45.0176L43.2451 59.4879" stroke="#FF6004" stroke-width="3"/>
<path d="M59.2764 45.0176L43.2451 59.4879" stroke="url(#paint8_linear_540_2920)" stroke-width="3"/>
<path d="M14.6846 28.0439L32.333 58.8127" stroke="#FF6004" stroke-width="3"/>
<path d="M14.6846 28.0439L32.333 58.8127" stroke="url(#paint9_linear_540_2920)" stroke-width="3"/>
<path d="M17.4268 57.0264L29.2252 62.4967" stroke="#FF6004" stroke-width="3"/>
<path d="M17.4268 57.0264L29.2252 62.4967" stroke="url(#paint10_linear_540_2920)" stroke-width="3"/>
<path d="M13.25 45.6215L32.9797 17.0605" stroke="#FF6004" stroke-width="3"/>
<path d="M13.25 45.6215L32.9797 17.0605" stroke="url(#paint11_linear_540_2920)" stroke-width="3"/>
<path d="M17.7217 24.416L31.5311 32.2207" stroke="#FF6004" stroke-width="3"/>
<path d="M17.7217 24.416L31.5311 32.2207" stroke="url(#paint12_linear_540_2920)" stroke-width="3"/>
<path d="M44.0186 36.0176L56.0982 36.9316" stroke="#FF6004" stroke-width="3"/>
<path d="M44.0186 36.0176L56.0982 36.9316" stroke="url(#paint13_linear_540_2920)" stroke-width="3"/>
<path d="M37.3955 41.8955L37.4096 57.0268" stroke="url(#paint14_linear_540_2920)" stroke-width="3"/>
<defs>
<linearGradient id="paint0_linear_540_2920" x1="31.3422" y1="-12.5207" x2="24.3451" y2="48.1367" gradientUnits="userSpaceOnUse">
<stop offset="0.23" stop-color="#6B1D5D"/>
<stop offset="0.779815" stop-color="#FFBA45"/>
</linearGradient>
<linearGradient id="paint1_linear_540_2920" x1="58.2163" y1="15.8436" x2="51.2191" y2="76.501" gradientUnits="userSpaceOnUse">
<stop offset="0.23" stop-color="#6B1D5D"/>
<stop offset="0.779815" stop-color="#FFBA45"/>
</linearGradient>
<linearGradient id="paint2_linear_540_2920" x1="31.3422" y1="42.5204" x2="24.3451" y2="103.178" gradientUnits="userSpaceOnUse">
<stop offset="0.23" stop-color="#6B1D5D"/>
<stop offset="0.779815" stop-color="#FFBA45"/>
</linearGradient>
<linearGradient id="paint3_linear_540_2920" x1="4.11763" y1="30.5106" x2="-2.87953" y2="91.168" gradientUnits="userSpaceOnUse">
<stop offset="0.23" stop-color="#6B1D5D"/>
<stop offset="0.779815" stop-color="#FFBA45"/>
</linearGradient>
<linearGradient id="paint4_linear_540_2920" x1="4.11763" y1="-1.49527" x2="-2.87953" y2="59.1621" gradientUnits="userSpaceOnUse">
<stop offset="0.23" stop-color="#6B1D5D"/>
<stop offset="0.779815" stop-color="#FFBA45"/>
</linearGradient>
<linearGradient id="paint5_linear_540_2920" x1="32.4963" y1="16.9358" x2="26.8456" y2="65.9203" gradientUnits="userSpaceOnUse">
<stop offset="0.23" stop-color="#6B1D5D"/>
<stop offset="0.779815" stop-color="#FFBA45"/>
</linearGradient>
<linearGradient id="paint6_linear_540_2920" x1="18.8177" y1="8.08994" x2="18.0269" y2="25.8499" gradientUnits="userSpaceOnUse">
<stop offset="0.23" stop-color="#6B1D5D"/>
<stop offset="0.779815" stop-color="#FFBA45"/>
</linearGradient>
<linearGradient id="paint7_linear_540_2920" x1="45.1259" y1="1.15174" x2="37.2831" y2="63.1556" gradientUnits="userSpaceOnUse">
<stop offset="0.23" stop-color="#6B1D5D"/>
<stop offset="0.779815" stop-color="#FFBA45"/>
</linearGradient>
<linearGradient id="paint8_linear_540_2920" x1="45.3191" y1="32.181" x2="39.7221" y2="85.9342" gradientUnits="userSpaceOnUse">
<stop offset="0.23" stop-color="#6B1D5D"/>
<stop offset="0.779815" stop-color="#FFBA45"/>
</linearGradient>
<linearGradient id="paint9_linear_540_2920" x1="16.9678" y1="0.749087" x2="-5.36493" y2="111.794" gradientUnits="userSpaceOnUse">
<stop offset="0.23" stop-color="#6B1D5D"/>
<stop offset="0.779815" stop-color="#FFBA45"/>
</linearGradient>
<linearGradient id="paint10_linear_540_2920" x1="18.9531" y1="52.1737" x2="17.8576" y2="72.6561" gradientUnits="userSpaceOnUse">
<stop offset="0.23" stop-color="#6B1D5D"/>
<stop offset="0.779815" stop-color="#FFBA45"/>
</linearGradient>
<linearGradient id="paint11_linear_540_2920" x1="15.8024" y1="-8.27577" x2="-1.62074" y2="96.0608" gradientUnits="userSpaceOnUse">
<stop offset="0.23" stop-color="#6B1D5D"/>
<stop offset="0.779815" stop-color="#FFBA45"/>
</linearGradient>
<linearGradient id="paint12_linear_540_2920" x1="19.5082" y1="17.4925" x2="17.6056" y2="46.675" gradientUnits="userSpaceOnUse">
<stop offset="0.23" stop-color="#6B1D5D"/>
<stop offset="0.779815" stop-color="#FFBA45"/>
</linearGradient>
<linearGradient id="paint13_linear_540_2920" x1="45.5813" y1="35.2067" x2="45.5514" y2="38.6388" gradientUnits="userSpaceOnUse">
<stop offset="0.23" stop-color="#6B1D5D"/>
<stop offset="0.779815" stop-color="#FFBA45"/>
</linearGradient>
<linearGradient id="paint14_linear_540_2920" x1="37.0002" y1="26.0002" x2="36.4916" y2="25.5606" gradientUnits="userSpaceOnUse">
<stop offset="0.144945" stop-color="#6B1D5D"/>
<stop offset="0.779815" stop-color="#FFBA45"/>
</linearGradient>
</defs>
</svg>
