<svg width="72" height="72" viewBox="0 0 72 72" fill="none" xmlns="http://www.w3.org/2000/svg">
<g clip-path="url(#clip0_540_2946)">
<path d="M48.52 15.4932H35.3108C34.6349 15.4932 34.0873 16.0409 34.0873 16.7166C34.0873 17.3923 34.6349 17.94 35.3108 17.94H47.2967V29.6787C47.2967 35.9074 42.2294 40.9747 36.0007 40.9747C29.772 40.9747 24.7047 35.9074 24.7047 29.6787V17.94H29.4058C30.0816 17.94 30.6292 17.3923 30.6292 16.7166C30.6292 16.0409 30.0816 15.4932 29.4058 15.4932H23.4812C22.8054 15.4932 22.2578 16.0409 22.2578 16.7166V29.6787C22.2578 37.2566 28.4227 43.4216 36.0007 43.4216C43.5785 43.4216 49.7435 37.2567 49.7435 29.6787V16.7166C49.7434 16.0409 49.1958 15.4932 48.52 15.4932Z" fill="url(#paint0_linear_540_2946)"/>
<path d="M46.346 13.4537C47.0468 13.4537 47.6149 12.8856 47.6149 12.1849C47.6149 11.4841 47.0468 10.916 46.346 10.916C45.6452 10.916 45.0771 11.4841 45.0771 12.1849C45.0771 12.8856 45.6452 13.4537 46.346 13.4537Z" fill="url(#paint1_linear_540_2946)"/>
<path d="M41.452 13.4537C42.1527 13.4537 42.7208 12.8856 42.7208 12.1849C42.7208 11.4841 42.1527 10.916 41.452 10.916C40.7512 10.916 40.1831 11.4841 40.1831 12.1849C40.1831 12.8856 40.7512 13.4537 41.452 13.4537Z" fill="url(#paint2_linear_540_2946)"/>
<path d="M59.318 18.8175C58.0257 17.326 56.3112 16.2733 54.4198 15.7916C53.0462 6.86081 45.3095 0 36.0003 0C31.8052 0 27.8435 1.36153 24.5433 3.9375C24.0107 4.35333 23.916 5.12212 24.3318 5.65467C24.7476 6.18722 25.5164 6.282 26.0488 5.86617C28.915 3.62911 32.3561 2.44673 36.0006 2.44673C44.3616 2.44673 51.2622 8.81775 52.1035 16.9598C52.117 17.0913 52.1303 17.2354 52.141 17.3721C52.4894 21.8503 52.19 26.4524 52.19 30.9431C52.19 31.1615 52.19 31.3799 52.19 31.5984C52.19 38.3103 47.7976 44.5565 41.4805 46.8326C41.1722 46.9437 40.8604 47.045 40.5457 47.1364C37.9748 47.8827 35.2295 47.9865 32.6101 47.4297C26.3205 46.0951 21.2282 40.782 20.0704 34.4721C19.8968 33.5249 19.8107 32.5613 19.8107 31.5984V18.6363C19.8107 18.1592 19.839 17.6847 19.8747 17.2093C20.128 14.295 21.1547 11.5305 22.886 9.14344C23.2827 8.59655 23.1611 7.83169 22.6139 7.4347C22.067 7.03814 21.3017 7.15964 20.9052 7.70681C19.151 10.1256 18.0245 12.8797 17.58 15.7916C15.689 16.2737 13.9748 17.3261 12.6824 18.8173C11.168 20.565 10.334 22.8023 10.334 25.1173C10.334 27.4323 11.168 29.6696 12.6824 31.4173C13.9748 32.9088 15.6893 33.9614 17.5805 34.4431C18.6368 41.3099 23.4551 46.9515 29.8571 49.1932V52.5776C28.8072 52.74 27.776 52.992 26.776 53.3312C25.57 53.7408 24.4077 54.2789 23.3127 54.9291C17.7431 58.2359 14.2834 64.3085 14.2834 70.7764C14.2834 71.4521 14.831 71.9999 15.5069 71.9999C15.5069 71.9999 23.9373 71.9999 23.938 71.9999C23.938 71.9999 48.0624 71.9999 48.0631 71.9999H56.4936C57.1694 71.9999 57.717 71.4521 57.717 70.7764C57.717 64.3082 54.2572 58.2359 48.6878 54.9291C48.6816 54.9253 48.6747 54.9229 48.6685 54.9193C48.6634 54.9163 48.6591 54.9128 48.654 54.91C47.6149 54.2959 46.5168 53.7844 45.39 53.3895C44.3399 53.0215 43.2522 52.7496 42.1432 52.5776V49.193C48.5455 46.9515 53.3637 41.3099 54.4199 34.4431C56.3113 33.9612 58.0258 32.9086 59.3182 31.4173C60.8326 29.6696 61.6666 27.4323 61.6666 25.1173C61.6666 22.8023 60.8324 20.5651 59.318 18.8175ZM17.3652 31.8095C14.6696 30.7554 12.781 28.1046 12.781 25.1175C12.781 22.1303 14.6695 19.4794 17.3652 18.4253C17.3644 18.4957 17.364 18.566 17.364 18.6363V31.5986C17.364 31.6688 17.3644 31.7392 17.3652 31.8095ZM22.714 69.5533H16.778C17.1205 65.1573 19.2935 61.071 22.714 58.3165V69.5533ZM49.2867 58.3162C52.7072 61.0708 54.8802 65.1571 55.2227 69.5531H49.2867V58.3162ZM44.581 55.6987C45.3535 55.9693 46.1107 56.3036 46.84 56.6954V69.5531H25.1609V56.6944C25.8894 56.303 26.6455 55.9692 27.4142 55.6997L27.57 55.6456C28.7322 55.2513 29.9519 54.9925 31.195 54.876C31.8237 54.817 32.3044 54.2894 32.3044 53.658V49.8669C32.3057 49.8891 32.697 49.9411 32.7313 49.9473C32.889 49.9756 33.0475 50.001 33.2057 50.0251C34.13 50.165 35.0658 50.2348 36.0007 50.2348C36.9179 50.2348 37.8197 50.167 38.7018 50.0383C39.0347 49.9897 39.367 49.9333 39.6969 49.8669V53.6577C39.6969 54.289 40.1773 54.8167 40.806 54.8757C42.1002 54.9976 43.3702 55.2745 44.581 55.6987ZM54.6354 31.8097C54.6515 30.3787 54.6366 28.9464 54.6366 27.5154C54.6366 25.2411 54.6366 22.9669 54.6366 20.6924C54.6366 20.5045 54.638 18.4251 54.6354 18.4251C57.331 19.4791 59.2196 22.13 59.2196 25.1175C59.2196 28.1049 57.3311 30.7557 54.6354 31.8097Z" fill="url(#paint3_linear_540_2946)"/>
</g>
<defs>
<linearGradient id="paint0_linear_540_2946" x1="25.8137" y1="-9.28204" x2="13.688" y2="94.1676" gradientUnits="userSpaceOnUse">
<stop offset="0.23" stop-color="#6B1D5D"/>
<stop offset="0.779815" stop-color="#FFBA45"/>
</linearGradient>
<linearGradient id="paint1_linear_540_2946" x1="45.4055" y1="8.66481" x2="44.3207" y2="18.0688" gradientUnits="userSpaceOnUse">
<stop offset="0.23" stop-color="#6B1D5D"/>
<stop offset="0.779815" stop-color="#FFBA45"/>
</linearGradient>
<linearGradient id="paint2_linear_540_2946" x1="40.5114" y1="8.66481" x2="39.4266" y2="18.0688" gradientUnits="userSpaceOnUse">
<stop offset="0.23" stop-color="#6B1D5D"/>
<stop offset="0.779815" stop-color="#FFBA45"/>
</linearGradient>
<linearGradient id="paint3_linear_540_2946" x1="16.9749" y1="-63.8708" x2="-25.653" y2="199.591" gradientUnits="userSpaceOnUse">
<stop offset="0.23" stop-color="#6B1D5D"/>
<stop offset="0.779815" stop-color="#FFBA45"/>
</linearGradient>
<clipPath id="clip0_540_2946">
<rect width="72" height="72" fill="white"/>
</clipPath>
</defs>
</svg>
