<svg width="40" height="40" viewBox="0 0 40 40" fill="none" xmlns="http://www.w3.org/2000/svg">
<g id="Icon">
<path id="Vector" d="M6.26672 30.0002C6.26672 29.6446 6.37783 29.3558 6.60006 29.1335C6.82228 28.9113 7.11117 28.8002 7.46672 28.8002H32.5334C32.8889 28.8002 33.1778 28.9113 33.4001 29.1335C33.6223 29.3558 33.7334 29.6446 33.7334 30.0002C33.7334 30.3558 33.6223 30.6446 33.4001 30.8669C33.1778 31.0891 32.8889 31.2002 32.5334 31.2002H7.46672C7.11117 31.2002 6.82228 31.0891 6.60006 30.8669C6.37783 30.6446 6.26672 30.3558 6.26672 30.0002ZM6.26672 20.0002C6.26672 19.6446 6.37783 19.3558 6.60006 19.1335C6.82228 18.9113 7.11117 18.8002 7.46672 18.8002H32.5334C32.8889 18.8002 33.1778 18.9113 33.4001 19.1335C33.6223 19.3558 33.7334 19.6446 33.7334 20.0002C33.7334 20.3558 33.6223 20.6446 33.4001 20.8669C33.1778 21.0891 32.8889 21.2002 32.5334 21.2002H7.46672C7.11117 21.2002 6.82228 21.0891 6.60006 20.8669C6.37783 20.6446 6.26672 20.3558 6.26672 20.0002ZM6.26672 10.0002C6.26672 9.64464 6.37783 9.35575 6.60006 9.13353C6.82228 8.9113 7.11117 8.80019 7.46672 8.80019H32.5334C32.8889 8.80019 33.1778 8.9113 33.4001 9.13353C33.6223 9.35575 33.7334 9.64464 33.7334 10.0002C33.7334 10.3557 33.6223 10.6446 33.4001 10.8669C33.1778 11.0891 32.8889 11.2002 32.5334 11.2002H7.46672C7.11117 11.2002 6.82228 11.0891 6.60006 10.8669C6.37783 10.6446 6.26672 10.3557 6.26672 10.0002Z" fill="url(#paint0_linear_448_4769)"/>
</g>
<defs>
<linearGradient id="paint0_linear_448_4769" x1="6.26672" y1="20.0002" x2="33.7334" y2="20.0002" gradientUnits="userSpaceOnUse">
<stop stop-color="#FF6004"/>
<stop offset="1" stop-color="#FE9E30"/>
</linearGradient>
</defs>
</svg>
