<svg width="123" height="128" viewBox="0 0 123 128" fill="none" xmlns="http://www.w3.org/2000/svg">
<rect x="1" y="6.5" width="121" height="121" rx="60.5" stroke="black"/>
<rect x="1" y="6.5" width="121" height="121" rx="60.5" stroke="url(#paint0_linear_570_30)"/>
<g clip-path="url(#clip0_570_30)">
<path d="M63.7279 43.7881C54.6195 43.7881 47.209 51.1985 47.209 60.307C47.209 62.9355 47.8419 65.5511 49.0388 67.871C49.3198 68.4165 49.9908 68.6301 50.536 68.3492C51.0815 68.0677 51.2958 67.3975 51.0141 66.852C49.9643 64.817 49.4317 62.6149 49.4317 60.307C49.4317 52.424 55.8447 46.011 63.7278 46.011C71.6108 46.011 78.024 52.424 78.024 60.307C78.024 65.047 75.6807 69.4699 71.755 72.1384C71.2474 72.4836 71.1158 73.1748 71.4609 73.6826C71.6761 73.9989 72.0251 74.169 72.3808 74.169C72.5962 74.169 72.8134 74.1067 73.0047 73.9767C77.5397 70.8938 80.2469 65.7838 80.2469 60.307C80.2471 51.1985 72.8367 43.7881 63.7279 43.7881Z" fill="url(#paint1_linear_570_30)"/>
<path d="M67.3398 70.847C67.472 70.847 67.6064 70.8231 67.7373 70.7729C72.0408 69.1231 74.9321 64.9177 74.9321 60.3077C74.9321 54.1296 69.906 49.1035 63.7279 49.1035C57.55 49.1035 52.5234 54.1296 52.5234 60.3077C52.5234 63.1796 53.6089 65.9106 55.5799 67.9981C56.0009 68.4445 56.7046 68.4652 57.1508 68.0434C57.5974 67.6219 57.6176 66.9187 57.1959 66.4725C55.6163 64.7989 54.7462 62.6095 54.7462 60.3077C54.7462 55.3554 58.7754 51.3264 63.7278 51.3264C68.6802 51.3264 72.7092 55.3554 72.7092 60.3077C72.7092 64.0035 70.3912 67.3748 66.9414 68.6975C66.3683 68.9173 66.0819 69.5601 66.3014 70.1332C66.4712 70.5754 66.8925 70.847 67.3398 70.847Z" fill="url(#paint2_linear_570_30)"/>
<path d="M42.8297 72.809C43.4435 72.809 43.9411 72.3112 43.9411 71.6975C43.9411 71.0839 43.4435 70.5863 42.8297 70.5863H39.7201C39.1065 70.5863 38.6089 71.0839 38.6089 71.6975V87.1581C38.6089 87.7716 39.1065 88.2694 39.7201 88.2694H46.8868H67.0877C69.7253 88.2694 72.3329 87.3881 74.4298 85.7876L81.1765 80.6387C83.0554 79.2051 83.4459 76.4891 82.0471 74.5845C80.6466 72.6772 77.936 72.2382 76.0045 73.6058L72.5506 76.052C72.0497 76.4069 71.9315 77.1005 72.2862 77.6016C72.6412 78.1021 73.3347 78.2206 73.8356 77.866L77.2896 75.4197C78.2379 74.7477 79.5686 74.9643 80.2553 75.9001C80.9423 76.8351 80.7506 78.1681 79.8283 78.8717L73.0814 84.0205C71.3692 85.3271 69.241 86.0465 67.0877 86.0465H47.9982V72.8088H55.5221C56.8275 72.8088 58.0603 73.3112 58.9935 74.2237C60.3452 75.5441 62.1299 76.2712 64.0191 76.2712H66.172C67.1802 76.2712 68 77.091 68 78.0989C68 79.4425 66.907 80.5358 65.5632 80.5358H57.765C57.1514 80.5358 56.6536 81.0334 56.6536 81.647C56.6536 82.2608 57.1514 82.7584 57.765 82.7584H65.5632C68.1324 82.7584 70.2227 80.6681 70.2227 78.0989C70.2227 75.8658 68.4056 74.0485 66.172 74.0485H64.0191C62.7138 74.0485 61.4808 73.546 60.5472 72.6338C59.1964 71.3129 57.4118 70.5859 55.5221 70.5859H46.8867C46.2731 70.5859 45.7753 71.0835 45.7753 71.6971V86.0464H40.8314V72.8087H42.8297V72.809Z" fill="url(#paint3_linear_570_30)"/>
<path d="M63.7278 68.475C64.3415 68.475 64.8391 67.9772 64.8391 67.3636V66.4639C66.4041 66.1751 67.5941 64.8031 67.5941 63.1559C67.5941 61.2994 66.0839 59.7892 64.2273 59.7892H64.0556H63.4026H63.2308C62.6 59.7892 62.0868 59.2763 62.0868 58.6455C62.0868 58.0147 62.6 57.5018 63.2308 57.5018H65.8294C66.4432 57.5018 66.9408 57.0041 66.9408 56.3905C66.9408 55.7769 66.4432 55.2791 65.8294 55.2791H64.8393V54.5694C64.8393 53.9556 64.3417 53.458 63.7279 53.458C63.1143 53.458 62.6167 53.9558 62.6167 54.5694V55.338C61.0529 55.6279 59.8643 56.9995 59.8643 58.6457C59.8643 60.5019 61.3745 62.0121 63.231 62.0121H63.4028H64.0557H64.2275C64.8583 62.0121 65.3715 62.5252 65.3715 63.1561C65.3715 63.7869 64.8583 64.2998 64.2275 64.2998H61.6289C61.0153 64.2998 60.5176 64.7975 60.5176 65.4111C60.5176 66.0249 61.0153 66.5225 61.6289 66.5225H62.6167V67.3638C62.6166 67.9772 63.1142 68.475 63.7278 68.475Z" fill="url(#paint4_linear_570_30)"/>
<path d="M92.0183 94.742L82.9442 88.4753C82.4392 88.1267 81.7467 88.253 81.398 88.7581C81.0492 89.2633 81.1759 89.9555 81.6809 90.3044L89.4309 95.6566L83.4241 99.8054V97.9264C83.4241 97.3128 82.9263 96.8151 82.3127 96.8151H47.3922V94.498H82.3127C82.9263 94.498 83.4241 94.0003 83.4241 93.3867C83.4241 92.7731 82.9263 92.2755 82.3127 92.2755H46.2806C45.667 92.2755 45.1694 92.7731 45.1694 93.3867V97.9264C45.1694 98.54 45.667 99.0376 46.2806 99.0376H81.2012V101.923C81.2012 102.337 81.4304 102.716 81.7962 102.908C81.9585 102.993 82.1357 103.035 82.3125 103.035C82.5343 103.035 82.755 102.968 82.9442 102.838L92.0183 96.571C92.3189 96.3634 92.4982 96.0213 92.4982 95.6565C92.4982 95.2913 92.3189 94.9494 92.0183 94.742Z" fill="url(#paint5_linear_570_30)"/>
<path d="M41.5978 92.2744H36.6607C36.0471 92.2744 35.5493 92.772 35.5493 93.3856V97.9255C35.5493 98.5391 36.0471 99.0367 36.6607 99.0367H41.5978C42.2114 99.0367 42.709 98.5391 42.709 97.9255V93.3856C42.709 92.772 42.2114 92.2744 41.5978 92.2744ZM40.4863 96.8142H37.772V94.4971H40.4863V96.8142Z" fill="url(#paint6_linear_570_30)"/>
<path d="M31.9776 92.2744C31.364 92.2744 30.8662 92.772 30.8662 93.3856V97.9255C30.8662 98.5391 31.364 99.0367 31.9776 99.0367C32.5912 99.0367 33.0889 98.5391 33.0889 97.9255V93.3856C33.0889 92.772 32.5912 92.2744 31.9776 92.2744Z" fill="url(#paint7_linear_570_30)"/>
<path d="M31.9809 39.2589L41.055 45.5259C41.2479 45.659 41.4678 45.7228 41.6856 45.7228C42.0385 45.7228 42.3857 45.5553 42.6011 45.2431C42.9499 44.7379 42.8233 44.0459 42.3183 43.6969L34.5683 38.3442L40.5751 34.1954V36.0744C40.5751 36.688 41.0729 37.1858 41.6865 37.1858H76.607V39.5028H41.6866C41.073 39.5028 40.5753 40.0006 40.5753 40.6142C40.5753 41.2278 41.073 41.7256 41.6866 41.7256H77.7185C78.3321 41.7256 78.8297 41.2278 78.8297 40.6142V36.0744C78.8297 35.4607 78.3321 34.9631 77.7185 34.9631H42.798V32.0772C42.798 31.6641 42.5688 31.2849 42.2029 31.0928C41.8371 30.9012 41.3946 30.9279 41.055 31.1627L31.9809 37.4299C31.6803 37.6373 31.501 37.9793 31.501 38.3444C31.501 38.7094 31.6803 39.0513 31.9809 39.2589Z" fill="url(#paint8_linear_570_30)"/>
<path d="M82.4016 41.7254H87.3385C87.9521 41.7254 88.4499 41.2276 88.4499 40.614V36.0742C88.4499 35.4605 87.9521 34.9629 87.3385 34.9629H82.4016C81.7878 34.9629 81.29 35.4607 81.29 36.0742V40.614C81.29 41.2278 81.7878 41.7254 82.4016 41.7254ZM83.5129 37.1856H86.2272V39.5027H83.5129V37.1856Z" fill="url(#paint9_linear_570_30)"/>
<path d="M92.022 34.9629C91.4084 34.9629 90.9106 35.4607 90.9106 36.0742V40.614C90.9106 41.2276 91.4084 41.7254 92.022 41.7254C92.6356 41.7254 93.1334 41.2276 93.1334 40.614V36.0742C93.1335 35.4605 92.6356 34.9629 92.022 34.9629Z" fill="url(#paint10_linear_570_30)"/>
</g>
<rect x="54.5" y="1" width="14" height="14" rx="7" fill="white" stroke="url(#paint11_linear_570_30)" stroke-width="2"/>
<defs>
<linearGradient id="paint0_linear_570_30" x1="17.0245" y1="-99.4516" x2="-34.272" y2="345.23" gradientUnits="userSpaceOnUse">
<stop offset="0.23" stop-color="#6B1D5D"/>
<stop offset="0.779815" stop-color="#FFBA45"/>
</linearGradient>
<linearGradient id="paint1_linear_570_30" x1="51.4831" y1="16.8373" x2="39.5163" y2="129.648" gradientUnits="userSpaceOnUse">
<stop offset="0.23" stop-color="#6B1D5D"/>
<stop offset="0.779815" stop-color="#FFBA45"/>
</linearGradient>
<linearGradient id="paint2_linear_570_30" x1="55.4225" y1="29.8149" x2="46.3967" y2="110.451" gradientUnits="userSpaceOnUse">
<stop offset="0.23" stop-color="#6B1D5D"/>
<stop offset="0.779815" stop-color="#FFBA45"/>
</linearGradient>
<linearGradient id="paint3_linear_570_30" x1="44.3371" y1="54.899" x2="41.2844" y2="121.16" gradientUnits="userSpaceOnUse">
<stop offset="0.23" stop-color="#6B1D5D"/>
<stop offset="0.779815" stop-color="#FFBA45"/>
</linearGradient>
<linearGradient id="paint4_linear_570_30" x1="60.8643" y1="40.1365" x2="48.8316" y2="93.8285" gradientUnits="userSpaceOnUse">
<stop offset="0.23" stop-color="#6B1D5D"/>
<stop offset="0.779815" stop-color="#FFBA45"/>
</linearGradient>
<linearGradient id="paint5_linear_570_30" x1="51.2924" y1="75.1879" x2="49.302" y2="130.527" gradientUnits="userSpaceOnUse">
<stop offset="0.23" stop-color="#6B1D5D"/>
<stop offset="0.779815" stop-color="#FFBA45"/>
</linearGradient>
<linearGradient id="paint6_linear_570_30" x1="36.4756" y1="86.2756" x2="33.7414" y2="111.37" gradientUnits="userSpaceOnUse">
<stop offset="0.23" stop-color="#6B1D5D"/>
<stop offset="0.779815" stop-color="#FFBA45"/>
</linearGradient>
<linearGradient id="paint7_linear_570_30" x1="31.1538" y1="86.2756" x2="23.2194" y2="108.883" gradientUnits="userSpaceOnUse">
<stop offset="0.23" stop-color="#6B1D5D"/>
<stop offset="0.779815" stop-color="#FFBA45"/>
</linearGradient>
<linearGradient id="paint8_linear_570_30" x1="37.6239" y1="17.875" x2="35.6335" y2="73.2156" gradientUnits="userSpaceOnUse">
<stop offset="0.23" stop-color="#6B1D5D"/>
<stop offset="0.779815" stop-color="#FFBA45"/>
</linearGradient>
<linearGradient id="paint9_linear_570_30" x1="82.2163" y1="28.9639" x2="79.4821" y2="54.0591" gradientUnits="userSpaceOnUse">
<stop offset="0.23" stop-color="#6B1D5D"/>
<stop offset="0.779815" stop-color="#FFBA45"/>
</linearGradient>
<linearGradient id="paint10_linear_570_30" x1="91.1982" y1="28.9639" x2="83.2635" y2="51.5722" gradientUnits="userSpaceOnUse">
<stop offset="0.23" stop-color="#6B1D5D"/>
<stop offset="0.779815" stop-color="#FFBA45"/>
</linearGradient>
<linearGradient id="paint11_linear_570_30" x1="55.5699" y1="-14.1935" x2="48.7304" y2="45.0974" gradientUnits="userSpaceOnUse">
<stop offset="0.23" stop-color="#6B1D5D"/>
<stop offset="0.779815" stop-color="#FFBA45"/>
</linearGradient>
<clipPath id="clip0_570_30">
<rect width="80" height="80" fill="white" transform="translate(22 27)"/>
</clipPath>
</defs>
</svg>
