<svg width="94" height="95" viewBox="0 0 94 95" fill="none" xmlns="http://www.w3.org/2000/svg">
<g clip-path="url(#clip0_540_3401)">
<path d="M85.6584 61.5887H82.6292V38.8084H82.5822C84.4377 37.4234 85.6584 35.2259 85.6584 32.7337V26.3005L75.9921 6.91605H73.5415V0.841309H22.0442V6.91605H19.5935L9.9272 26.3005V32.7337C9.9272 35.2259 11.148 37.4234 13.0034 38.8084H12.9564V61.5887H9.9272V91.9624H6.89795V94.9998H88.6877V91.9624H85.6584V61.5887ZM79.5999 61.5887H76.5707V40.1631C77.0614 40.2633 77.5658 40.3271 78.0853 40.3271C78.6033 40.3271 79.1107 40.274 79.5999 40.1737V61.5887ZM25.0734 28.1776H34.1763L34.1612 32.7337C34.1612 35.2456 32.1225 37.2897 29.6173 37.2897C27.1121 37.2897 25.0734 35.2456 25.0734 32.7337V28.1776ZM36.9178 9.95342L34.3929 25.1403H25.6596L30.7079 9.95342H36.9178ZM64.8778 9.95342L69.926 25.1403H61.1745L58.6663 9.95342H64.8778ZM37.1904 28.1776H46.2782V32.7337C46.2782 35.2456 44.2395 37.2897 41.7343 37.2897C39.2291 37.2897 37.1904 35.2456 37.1904 32.7337V28.1776ZM49.3074 28.1776H58.3952V32.7337C58.3952 35.2456 56.3565 37.2897 53.8513 37.2897C51.3461 37.2897 49.3074 35.2456 49.3074 32.7337V28.1776ZM61.4244 28.1776H70.5122V32.7337C70.5122 35.2456 68.4735 37.2897 65.9683 37.2897C63.4631 37.2897 61.4244 35.2456 61.4244 32.7337V28.1776ZM55.5977 9.95342L58.1226 25.1403H49.3074V9.95342H55.5977ZM46.2782 25.1403H37.4631L39.988 9.95342H46.2782V25.1403ZM23.5588 37.2852C24.9417 39.1304 27.1424 40.3271 29.6173 40.3271C32.0922 40.3271 34.293 39.1304 35.6758 37.2852C37.0587 39.1304 39.2594 40.3271 41.7343 40.3271C44.2092 40.3271 46.41 39.1304 47.7928 37.2852C49.1757 39.1304 51.3764 40.3271 53.8513 40.3271C56.3262 40.3271 58.527 39.1304 59.9098 37.2852C61.2927 39.1304 63.4934 40.3271 65.9683 40.3271C68.4432 40.3271 70.644 39.1304 72.0268 37.2852C72.4615 37.8668 72.9856 38.3726 73.5672 38.8084H73.5415V61.5887H22.0442V38.8084H22.0184C22.6001 38.3726 23.1241 37.8668 23.5588 37.2852ZM78.0853 37.2897C75.5801 37.2897 73.5415 35.2456 73.5415 32.7337V28.1776H82.6292V32.7337C82.6292 35.2456 80.5905 37.2897 78.0853 37.2897ZM81.6932 25.1403H73.1189L68.0691 9.95342H74.12L81.6932 25.1403ZM25.0734 3.87868H70.5122V6.91605H25.0734V3.87868ZM21.4656 9.95342H27.5165L22.4668 25.1403H13.8925L21.4656 9.95342ZM12.9564 28.1776H22.0442V32.7337C22.0442 35.2456 20.0055 37.2897 17.5003 37.2897C14.9951 37.2897 12.9564 35.2456 12.9564 32.7337V28.1776ZM15.9857 40.1737C16.4749 40.274 16.9823 40.3271 17.5003 40.3271C18.0198 40.3271 18.5242 40.2633 19.0149 40.1631V61.5887H15.9857V40.1737ZM12.9564 64.6261H82.6292V91.9624H79.5999V67.6634H70.5122V70.7008H76.5707V91.9624H19.0149V70.7008H25.0734V67.6634H15.9857V91.9624H12.9564V64.6261Z" fill="url(#paint0_linear_540_3401)"/>
<path d="M67.4828 67.6636H28.1025V70.7009H67.4828V67.6636Z" fill="url(#paint1_linear_540_3401)"/>
<path d="M94.746 91.9624H91.7168V94.9998H94.746V91.9624Z" fill="url(#paint2_linear_540_3401)"/>
<path d="M3.86861 91.9624H0.839355V94.9998H3.86861V91.9624Z" fill="url(#paint3_linear_540_3401)"/>
</g>
<defs>
<linearGradient id="paint0_linear_540_3401" x1="17.4791" y1="-82.6864" x2="-28.6606" y2="264.751" gradientUnits="userSpaceOnUse">
<stop offset="0.23" stop-color="#6B1D5D"/>
<stop offset="0.779815" stop-color="#FFBA45"/>
</linearGradient>
<linearGradient id="paint1_linear_540_3401" x1="33.1972" y1="64.9691" x2="33.0957" y2="76.3735" gradientUnits="userSpaceOnUse">
<stop offset="0.23" stop-color="#6B1D5D"/>
<stop offset="0.779815" stop-color="#FFBA45"/>
</linearGradient>
<linearGradient id="paint2_linear_540_3401" x1="92.1087" y1="89.268" x2="90.8069" y2="100.523" gradientUnits="userSpaceOnUse">
<stop offset="0.23" stop-color="#6B1D5D"/>
<stop offset="0.779815" stop-color="#FFBA45"/>
</linearGradient>
<linearGradient id="paint3_linear_540_3401" x1="1.23125" y1="89.268" x2="-0.0705245" y2="100.523" gradientUnits="userSpaceOnUse">
<stop offset="0.23" stop-color="#6B1D5D"/>
<stop offset="0.779815" stop-color="#FFBA45"/>
</linearGradient>
<clipPath id="clip0_540_3401">
<rect width="94" height="95" fill="white"/>
</clipPath>
</defs>
</svg>
