<svg width="100" height="101" viewBox="0 0 100 101" fill="none" xmlns="http://www.w3.org/2000/svg">
<g clip-path="url(#clip0_540_3353)">
<path d="M91.9355 43.9839L77.4194 48.1526V22.8065H64.5161V17.9194C64.5161 8.03927 56.5565 0 46.7742 0C43.8694 0 41.1323 0.72329 38.7097 1.97765C36.2871 0.72329 33.55 0 30.6452 0C20.8629 0 12.9032 8.03927 12.9032 17.9194V22.8065H0V101H59.6774H61.2903H77.4194V85.4737L91.4936 89.5349L100 89.5968V43.9839H91.9355ZM69.3548 26.0645H74.1936V49.0795L69.3548 50.4691V26.0645ZM66.129 26.0645V51.396L61.2903 52.7855V26.0645H66.129ZM46.7742 3.25806C54.779 3.25806 61.2903 9.83447 61.2903 17.9194V22.8065H59.6774H48.3871V17.9194C48.3871 12.3692 45.8758 7.40069 41.9403 4.11168C43.4548 3.56921 45.0774 3.25806 46.7742 3.25806ZM48.3871 37.4677V34.6625C49.3468 35.2278 50 36.2671 50 37.4677C50 39.2646 48.5532 40.7258 46.7742 40.7258C44.9952 40.7258 43.5484 39.2646 43.5484 37.4677C43.5484 36.2671 44.2016 35.2278 45.1613 34.6625V37.4677H48.3871ZM38.7097 5.73745C42.5968 8.3716 45.1613 12.8482 45.1613 17.9194V22.8065H32.2581V17.9194C32.2581 12.8465 34.8226 8.36997 38.7097 5.73745ZM16.129 17.9194C16.129 9.83447 22.6403 3.25806 30.6452 3.25806C32.3419 3.25806 33.9645 3.56921 35.479 4.11168C31.5435 7.40069 29.0323 12.3692 29.0323 17.9194V22.8065H16.129V17.9194ZM16.129 37.4677V34.6625C17.0887 35.2278 17.7419 36.2671 17.7419 37.4677C17.7419 39.2646 16.2952 40.7258 14.5161 40.7258C12.7371 40.7258 11.2903 39.2646 11.2903 37.4677C11.2903 36.2671 11.9435 35.2278 12.9032 34.6625V37.4677H16.129ZM58.0645 97.7419H3.22581V26.0645H12.9032V31.1829C10.1274 31.9111 8.06452 34.4394 8.06452 37.4677C8.06452 41.0614 10.9581 43.9839 14.5161 43.9839C18.0742 43.9839 20.9677 41.0614 20.9677 37.4677C20.9677 34.4394 18.9048 31.9111 16.129 31.1829V26.0645H45.1613V31.1829C42.3855 31.9111 40.3226 34.4394 40.3226 37.4677C40.3226 41.0614 43.2161 43.9839 46.7742 43.9839C50.3323 43.9839 53.2258 41.0614 53.2258 37.4677C53.2258 34.4394 51.1629 31.9111 48.3871 31.1829V26.0645H58.0645V53.7108L46.7806 56.951L33.871 53.227V80.3536L46.7758 76.6297L58.0645 79.8877V97.7419ZM45.1613 59.8735V73.7056L37.0968 76.0335V57.5472L45.1613 59.8735ZM63.571 97.7419L67.7419 93.5293L71.9129 97.7419H63.571ZM61.2903 95.4385V80.8179L66.129 82.214V90.5514L61.2903 95.4385ZM74.1936 95.4385L69.3548 90.5514V83.1458L74.1936 84.5419V95.4385ZM96.7742 86.3387H93.5484V83.0806H90.3226V85.8076L48.3871 73.7072V59.8735L90.3226 47.773V79.8226H93.5484V47.2419H96.7742V86.3387Z" fill="url(#paint0_linear_540_3353)"/>
<path d="M30.6452 65.1611H27.4194V68.4192H30.6452V65.1611Z" fill="url(#paint1_linear_540_3353)"/>
<path d="M24.1936 65.1611H20.9678V68.4192H24.1936V65.1611Z" fill="url(#paint2_linear_540_3353)"/>
<path d="M17.7419 65.1611H14.5161V68.4192H17.7419V65.1611Z" fill="url(#paint3_linear_540_3353)"/>
</g>
<defs>
<linearGradient id="paint0_linear_540_3353" x1="12.9371" y1="-89.5968" x2="-30.6577" y2="284.578" gradientUnits="userSpaceOnUse">
<stop offset="0.23" stop-color="#6B1D5D"/>
<stop offset="0.779815" stop-color="#FFBA45"/>
</linearGradient>
<linearGradient id="paint1_linear_540_3353" x1="27.8368" y1="62.2709" x2="26.4305" y2="74.3411" gradientUnits="userSpaceOnUse">
<stop offset="0.23" stop-color="#6B1D5D"/>
<stop offset="0.779815" stop-color="#FFBA45"/>
</linearGradient>
<linearGradient id="paint2_linear_540_3353" x1="21.3851" y1="62.2709" x2="19.9788" y2="74.3411" gradientUnits="userSpaceOnUse">
<stop offset="0.23" stop-color="#6B1D5D"/>
<stop offset="0.779815" stop-color="#FFBA45"/>
</linearGradient>
<linearGradient id="paint3_linear_540_3353" x1="14.9334" y1="62.2709" x2="13.5272" y2="74.3411" gradientUnits="userSpaceOnUse">
<stop offset="0.23" stop-color="#6B1D5D"/>
<stop offset="0.779815" stop-color="#FFBA45"/>
</linearGradient>
<clipPath id="clip0_540_3353">
<rect width="100" height="101" fill="white"/>
</clipPath>
</defs>
</svg>
