<svg width="100" height="101" viewBox="0 0 100 101" fill="none" xmlns="http://www.w3.org/2000/svg">
<g clip-path="url(#clip0_540_3366)">
<path d="M91.9038 80.2236L79.199 76.5518V73.3242C80.8903 71.963 82.228 70.1816 83.0568 68.1373H83.9993C87.5291 68.1373 90.3997 65.2608 90.3997 61.7238V47.4906C90.3997 43.0156 87.4747 39.1129 83.2328 37.8431L81.7703 36.3776C78.4757 33.0778 74.0962 31.2596 69.4367 31.2596C67.8286 31.2596 66.2765 31.4969 64.798 31.9074V16.8292C66.563 16.8292 67.9982 15.391 67.9982 13.6224V10.4157C67.9982 8.64715 66.563 7.20892 64.798 7.20892H46.5441C44.1711 3.22934 39.926 0.79541 35.2425 0.79541H33.5512C28.8661 0.79541 24.6227 3.22934 22.2497 7.20892H3.99415C2.22924 7.20892 0.793945 8.64715 0.793945 10.4157V13.6224C0.793945 15.391 2.22924 16.8292 3.99415 16.8292V58.517H32.796V76.3819C30.0422 77.0986 27.9957 79.587 27.9957 82.5677C27.9957 86.1048 30.8663 88.9812 34.3961 88.9812C37.9259 88.9812 40.7965 86.1048 40.7965 82.5677C40.7965 79.587 38.75 77.0986 35.9962 76.3819V58.517H51.9972V61.7238C51.9972 65.2608 54.8678 68.1373 58.3976 68.1373H59.3401C60.1689 70.1816 61.5066 71.963 63.1979 73.3242V76.5518L50.4931 80.2236C45.7264 81.6025 42.3966 86.0358 42.3966 91.0079V100.205H100V91.0079C100 86.0358 96.6705 81.6025 91.9038 80.2236ZM37.5963 82.5677C37.5963 84.3362 36.161 85.7745 34.3961 85.7745C32.6312 85.7745 31.1959 84.3362 31.1959 82.5677C31.1959 80.7992 32.6312 79.3609 34.3961 79.3609C36.161 79.3609 37.5963 80.7992 37.5963 82.5677ZM81.7207 80.618L78.5557 88.0176L73.5922 84.0396L78.0613 79.5614L81.7207 80.618ZM83.9993 64.9305H83.8889C83.9545 64.4046 83.9993 63.8707 83.9993 63.3272V58.517C85.7642 58.517 87.1995 59.9553 87.1995 61.7238C87.1995 63.4923 85.7642 64.9305 83.9993 64.9305ZM3.99415 10.4157H24.1842L24.6259 9.52901C26.3268 6.12023 29.7478 4.00217 33.5512 4.00217H35.2425C39.046 4.00217 42.467 6.12023 44.1663 9.52901L44.6079 10.4157H64.798V13.6224H3.99415V10.4157ZM7.19436 55.3103V16.8292H61.5978V33.1468C55.9127 36.0296 51.9972 41.9269 51.9972 48.7364V55.3103H7.19436ZM58.3976 64.9305C56.6327 64.9305 55.1974 63.4923 55.1974 61.7238C55.1974 59.9553 56.6327 58.517 58.3976 58.517V63.3272C58.3976 63.8707 58.4424 64.4046 58.508 64.9305H58.3976ZM58.8153 55.3103H58.3976C57.2264 55.3103 56.1431 55.6502 55.1974 56.2017V48.7348C55.1974 40.867 61.585 34.4664 69.4367 34.4664C73.2402 34.4664 76.8164 35.9511 79.5062 38.6448L81.5799 40.7227L82.0119 40.8302C85.0665 41.5982 87.1995 44.3351 87.1995 47.4906V56.2017C86.2538 55.6502 85.1705 55.3103 83.9993 55.3103H83.5816C82.6184 52.5204 79.999 50.5001 76.8916 50.5001C76.1252 50.5001 75.3699 50.6236 74.6435 50.8657L71.1985 52.0169L67.7534 50.8657C67.027 50.6236 66.2701 50.5001 65.5037 50.5001C62.3963 50.5001 59.7785 52.5204 58.8153 55.3103ZM61.5978 63.3272V57.6207C61.5978 55.4626 63.35 53.7069 65.5037 53.7069C65.9245 53.7069 66.3389 53.7742 66.739 53.9073L71.1985 55.3969L75.6563 53.9073C76.0564 53.7742 76.4724 53.7069 76.8916 53.7069C79.047 53.7069 80.7991 55.4626 80.7991 57.6207V63.3272C80.7991 68.6327 76.4932 72.9474 71.1985 72.9474C65.9037 72.9474 61.5978 68.6327 61.5978 63.3272ZM71.1985 76.1542C72.8962 76.1542 74.5155 75.8143 75.9988 75.2098V77.0938L71.1985 81.9039L66.3981 77.0938V75.2098C67.8814 75.8143 69.5007 76.1542 71.1985 76.1542ZM64.334 79.5598L68.8031 84.038L63.8396 88.016L60.6746 80.6164L64.334 79.5598ZM45.5968 91.0079C45.5968 87.458 47.9746 84.2913 51.3796 83.3053L57.5768 81.5127L62.5547 93.1516L69.5984 87.5077V96.9981H55.1974V87.3778H51.9972V96.9981H45.5968V91.0079ZM96.8001 96.9981H90.3997V87.3778H87.1995V96.9981H72.7986V87.5077L79.8406 93.1532L84.8185 81.5143L91.0157 83.3069C94.4223 84.2897 96.8001 87.458 96.8001 91.0079V96.9981Z" fill="url(#paint0_linear_540_3366)"/>
<path d="M39.1963 7.20898H29.5957V10.4157H39.1963V7.20898Z" fill="url(#paint1_linear_540_3366)"/>
<path d="M34.396 20.0361C25.5731 20.0361 18.395 27.2289 18.395 36.0699C18.395 44.9109 25.5731 52.1037 34.396 52.1037C43.219 52.1037 50.3971 44.9109 50.3971 36.0699C50.3971 27.2289 43.219 20.0361 34.396 20.0361ZM42.2333 25.9494L39.95 28.2358C38.3803 27.1167 36.4666 26.4496 34.396 26.4496C32.3255 26.4496 30.4118 27.1167 28.8421 28.2374L26.5587 25.951C28.7269 24.2594 31.4423 23.2429 34.396 23.2429C37.3498 23.2429 40.0652 24.2594 42.2333 25.9494ZM27.9956 36.0699C27.9956 32.5329 30.8662 29.6564 34.396 29.6564C37.9259 29.6564 40.7965 32.5329 40.7965 36.0699C40.7965 39.607 37.9259 42.4834 34.396 42.4834C30.8662 42.4834 27.9956 39.607 27.9956 36.0699ZM24.2962 28.2182L26.5795 30.5046C25.4611 32.0775 24.7954 33.9951 24.7954 36.0699C24.7954 38.1447 25.4611 40.0623 26.5795 41.6352L24.2962 43.9217C22.6097 41.7491 21.5952 39.0298 21.5952 36.0699C21.5952 33.1101 22.6097 30.3908 24.2962 28.2182ZM26.5587 46.1904L28.8421 43.904C30.4118 45.0232 32.3255 45.6902 34.396 45.6902C36.4666 45.6902 38.3803 45.0232 39.95 43.9024L42.2333 46.1888C40.0652 47.8804 37.3498 48.8969 34.396 48.8969C31.4423 48.8969 28.7269 47.8804 26.5587 46.1904ZM44.4959 43.9217L42.2125 41.6352C43.331 40.0623 43.9967 38.1447 43.9967 36.0699C43.9967 33.9951 43.331 32.0775 42.2125 30.5046L44.4959 28.2182C46.1824 30.3908 47.1969 33.1101 47.1969 36.0699C47.1969 39.0298 46.1824 41.7491 44.4959 43.9217Z" fill="url(#paint2_linear_540_3366)"/>
<path d="M19.9951 20.0361H10.3945V23.2429H19.9951V20.0361Z" fill="url(#paint3_linear_540_3366)"/>
<path d="M19.9951 48.897H10.3945V52.1037H19.9951V48.897Z" fill="url(#paint4_linear_540_3366)"/>
</g>
<defs>
<linearGradient id="paint0_linear_540_3366" x1="13.6283" y1="-87.3904" x2="-28.951" y2="280.97" gradientUnits="userSpaceOnUse">
<stop offset="0.23" stop-color="#6B1D5D"/>
<stop offset="0.779815" stop-color="#FFBA45"/>
</linearGradient>
<linearGradient id="paint1_linear_540_3366" x1="30.8377" y1="4.36428" x2="30.3745" y2="16.3878" gradientUnits="userSpaceOnUse">
<stop offset="0.23" stop-color="#6B1D5D"/>
<stop offset="0.779815" stop-color="#FFBA45"/>
</linearGradient>
<linearGradient id="paint2_linear_540_3366" x1="22.5351" y1="-8.4109" x2="8.79987" y2="110.415" gradientUnits="userSpaceOnUse">
<stop offset="0.23" stop-color="#6B1D5D"/>
<stop offset="0.779815" stop-color="#FFBA45"/>
</linearGradient>
<linearGradient id="paint3_linear_540_3366" x1="11.6366" y1="17.1914" x2="11.1733" y2="29.2149" gradientUnits="userSpaceOnUse">
<stop offset="0.23" stop-color="#6B1D5D"/>
<stop offset="0.779815" stop-color="#FFBA45"/>
</linearGradient>
<linearGradient id="paint4_linear_540_3366" x1="11.6366" y1="46.0523" x2="11.1733" y2="58.0758" gradientUnits="userSpaceOnUse">
<stop offset="0.23" stop-color="#6B1D5D"/>
<stop offset="0.779815" stop-color="#FFBA45"/>
</linearGradient>
<clipPath id="clip0_540_3366">
<rect width="100" height="101" fill="white"/>
</clipPath>
</defs>
</svg>
