<svg width="123" height="128" viewBox="0 0 123 128" fill="none" xmlns="http://www.w3.org/2000/svg">
<g clip-path="url(#clip0_570_31)">
<path d="M66.2546 99.5164L66.1626 99.528C65.5571 99.6037 65.1274 100.156 65.203 100.762C65.273 101.321 65.749 101.73 66.2984 101.73C66.3442 101.73 66.3904 101.727 66.4368 101.721L66.5383 101.708C67.1435 101.63 67.5709 101.076 67.4925 100.47C67.4143 99.865 66.8586 99.4368 66.2546 99.5164Z" fill="url(#paint0_linear_570_31)"/>
<path d="M62.4242 99.7868C62.4197 99.7868 62.4149 99.7868 62.4104 99.7869C62.2737 99.7886 62.137 99.7894 62 99.7894C43.9198 99.7895 29.2105 85.0802 29.2105 67C29.2105 48.9198 43.9198 34.2105 62 34.2105C80.0802 34.2105 94.7895 48.9198 94.7895 67C94.7895 71.9961 93.6952 76.7923 91.5371 81.2557C91.2712 81.8051 91.5014 82.4662 92.0511 82.7318C92.6001 82.9973 93.2616 82.7675 93.5272 82.2179C95.8315 77.4523 97 72.3322 97 67C97 57.6513 93.3595 48.8619 86.7487 42.2514C80.1381 35.6405 71.3487 32 62 32C52.6513 32 43.8619 35.6405 37.2513 42.2514C30.6405 48.8619 27 57.6513 27 67C27 76.3487 30.6405 85.1381 37.2513 91.7486C43.8619 98.3595 52.6513 102 62 102C62.1459 102 62.2918 101.999 62.4375 101.997C63.0478 101.99 63.5366 101.489 63.5291 100.879C63.5217 100.273 63.0285 99.7868 62.4242 99.7868Z" fill="url(#paint1_linear_570_31)"/>
<path d="M85.7998 70.0945H84.0048C83.4736 70.0945 83.0178 70.4723 82.9188 70.9939C82.7255 72.0137 82.4548 73.0265 82.1142 74.0047C81.9135 74.5811 82.2181 75.2112 82.7947 75.4119C83.371 75.6124 84.0012 75.308 84.2019 74.7315C84.4778 73.9392 84.7122 73.1264 84.9018 72.305H85.7999C88.7253 72.305 91.1051 69.9251 91.1051 66.9998C91.1051 64.0744 88.7253 61.6945 85.7999 61.6945H84.9023C84.3191 59.1596 83.3272 56.7661 81.9451 54.5575L82.5807 53.9221C84.6491 51.8535 84.6491 48.4878 82.5807 46.4191C80.512 44.3508 77.1462 44.3509 75.0777 46.4191L74.4423 47.0547C72.2338 45.6725 69.84 44.6807 67.3053 44.0975V43.1998C67.3053 40.2744 64.9254 37.8945 62 37.8945C59.0747 37.8945 56.6948 40.2744 56.6948 43.1998V44.0973C54.1599 44.6806 51.7662 45.6725 49.5578 47.0546L48.9222 46.4189C46.8537 44.3504 43.4879 44.3507 41.4195 46.4189C40.4173 47.4211 39.8657 48.7533 39.8657 50.1705C39.8657 51.5876 40.4176 52.9198 41.4195 53.9218L42.055 54.5574C40.6727 56.7657 39.681 59.1596 39.0976 61.6944H38.1998C35.2744 61.6944 32.8945 64.0743 32.8945 66.9996C32.8945 69.925 35.2744 72.3049 38.1998 72.3049H39.0973C39.6806 74.8398 40.6726 77.2334 42.0547 79.4419L41.4192 80.0773C40.4171 81.0795 39.8654 82.4118 39.8654 83.8288C39.8654 85.2458 40.4173 86.5782 41.4192 87.5803C43.4876 89.6486 46.8534 89.6486 48.9219 87.5803L49.5575 86.9447C51.766 88.3269 54.1598 89.3187 56.6945 89.9019V90.7995C56.6945 93.7249 59.0744 96.1047 61.9998 96.1047C64.9251 96.1047 67.305 93.7249 67.305 90.7995V89.9014C68.1257 89.7119 68.9388 89.4774 69.7315 89.2015C70.308 89.001 70.6126 88.3708 70.4121 87.7944C70.2116 87.2179 69.5815 86.913 69.005 87.1138C68.0256 87.4547 67.0127 87.7252 65.9937 87.9184C65.472 88.0174 65.0944 88.4734 65.0944 89.0044V90.7994C65.0944 92.5057 63.706 93.8941 61.9996 93.8941C60.2931 93.8941 58.9049 92.5057 58.9049 90.7994V89.0044C58.9049 88.4732 58.5271 88.0174 58.0057 87.9186C55.1351 87.374 52.4526 86.2626 50.0322 84.6149C49.5932 84.3157 49.0041 84.3714 48.6287 84.747L47.3588 86.0168C46.1521 87.2236 44.1887 87.2236 42.9823 86.0168C42.3977 85.4323 42.0759 84.6552 42.0759 83.8283C42.0759 83.0017 42.3977 82.2245 42.9823 81.6399L44.2522 80.37C44.6275 79.9947 44.6831 79.4053 44.3842 78.9666C42.7366 76.5464 41.6251 73.8639 41.0806 70.9932C40.9816 70.4716 40.5256 70.094 39.9946 70.094H38.1998C36.4932 70.094 35.105 68.7056 35.105 66.9992C35.105 65.2928 36.4932 63.9045 38.1998 63.9045H39.9946C40.5256 63.9045 40.9816 63.5267 41.0806 63.0053C41.6253 60.1347 42.7366 57.452 44.3842 55.0318C44.683 54.5929 44.6276 54.0037 44.2522 53.6284L42.9823 52.3584C42.3977 51.7739 42.0759 50.9968 42.0759 50.1701C42.0759 49.3434 42.3977 48.5661 42.9823 47.9816C44.189 46.7748 46.1521 46.7748 47.3588 47.9816L48.6287 49.2515C49.0042 49.6269 49.5934 49.6826 50.0322 49.3836C52.4524 47.7357 55.1351 46.6243 58.0055 46.0797C58.5272 45.9809 58.9047 45.5249 58.9047 44.9939V43.1998C58.9047 41.4934 60.293 40.105 61.9995 40.105C63.7059 40.105 65.0943 41.4934 65.0943 43.1998V44.9947C65.0943 45.5259 65.472 45.9817 65.9936 46.0806C68.8641 46.6251 71.5467 47.7365 73.9668 49.3842C74.4058 49.6834 74.9952 49.6276 75.3703 49.2522L76.6402 47.9823C77.8467 46.7756 79.8101 46.7754 81.0167 47.9823C82.2233 49.189 82.2233 51.1524 81.0167 52.3588L79.7468 53.6287C79.3715 54.0042 79.316 54.5935 79.6147 55.0322C81.2625 57.4524 82.3739 60.135 82.9184 63.0054C83.0173 63.5271 83.4732 63.9047 84.0042 63.9047H85.7995C87.5059 63.9047 88.8943 65.2931 88.8943 66.9995C88.8945 68.706 87.5061 70.0945 85.7998 70.0945Z" fill="url(#paint2_linear_570_31)"/>
<path d="M70.6237 98.6444L70.5066 98.676C69.9171 98.8344 69.5678 99.4408 69.7261 100.03C69.8587 100.524 70.3052 100.849 70.7928 100.849C70.8878 100.849 70.9843 100.837 71.0804 100.811L71.2043 100.777C71.7933 100.617 72.1407 100.009 71.9803 99.4204C71.8201 98.8313 71.2113 98.4846 70.6237 98.6444Z" fill="url(#paint3_linear_570_31)"/>
<path d="M83.0895 78.1571C83.089 78.1568 83.0888 78.1565 83.0884 78.156C82.3229 77.3905 81.3051 76.969 80.2226 76.969C79.5192 76.969 78.8431 77.147 78.2458 77.4817L76.2213 75.4572C80.0226 69.092 79.1857 60.7066 73.71 55.2309C67.2455 48.7668 56.7278 48.7668 50.2637 55.2309C47.1323 58.3623 45.4077 62.5256 45.4077 66.9541C45.4077 71.3825 47.1323 75.5458 50.2637 78.677C53.395 81.8084 57.5583 83.5331 61.9866 83.5331C65.0304 83.5331 67.9491 82.7182 70.4933 81.1921L72.5143 83.2131C72.1797 83.8105 72.0016 84.4866 72.0016 85.19C72.0016 86.2723 72.4232 87.29 73.1876 88.0546L85.9135 100.813C86.7036 101.603 87.7413 101.998 88.7791 101.998C89.817 101.998 90.8547 101.603 91.6448 100.813L95.813 96.6449C97.393 95.0648 97.3931 92.4938 95.8141 90.9145L83.0895 78.1571ZM70.0896 78.8247C70.0466 78.8497 70.0048 78.8779 69.9649 78.9092C67.623 80.4791 64.8696 81.3225 61.9868 81.3225C58.1488 81.3225 54.5407 79.8278 51.8268 77.1138C49.1131 74.4001 47.6185 70.7918 47.6185 66.9539C47.6185 63.1161 49.1129 59.5078 51.8268 56.7941C54.6279 53.9929 58.3073 52.5923 61.9868 52.5923C65.6662 52.5923 69.3457 53.9929 72.1468 56.7941C77.0846 61.732 77.6703 69.3994 73.9036 74.9845C73.8991 74.9911 73.8944 74.9979 73.8901 75.0046C73.3864 75.7488 72.8055 76.4555 72.1469 77.1141C71.5079 77.7531 70.8189 78.3246 70.0896 78.8247ZM72.3362 79.9085C72.813 79.5262 73.2713 79.1155 73.7099 78.677C74.1502 78.2367 74.5601 77.778 74.9405 77.3026L76.5755 78.9376L73.9702 81.5428L72.3362 79.9085ZM94.2499 95.0816L90.0817 99.2499C89.3635 99.9684 88.1949 99.9682 87.4777 99.251L74.7518 86.4924C74.4038 86.1446 74.2122 85.682 74.2122 85.19C74.2122 84.698 74.4038 84.2352 74.7518 83.8875L78.9201 79.7192C79.2679 79.3714 79.7304 79.1797 80.2225 79.1797C80.7142 79.1797 81.1766 79.3712 81.524 79.7184L94.2499 92.4767C94.9683 93.1948 94.9683 94.3636 94.2499 95.0816Z" fill="url(#paint4_linear_570_31)"/>
<path d="M53.9106 58.8779C49.4575 63.3311 49.4575 70.5768 53.9106 75.03C56.1372 77.2563 59.0619 78.3696 61.9866 78.3696C64.9113 78.3696 67.836 77.2563 70.0626 75.03C74.5156 70.5768 74.5156 63.3311 70.0626 58.8779C65.6092 54.4248 58.3637 54.4248 53.9106 58.8779ZM68.4996 73.4666C66.7036 75.2623 64.3455 76.1601 61.9866 76.16C59.6282 76.1597 57.2691 75.262 55.4738 73.4669C51.8828 69.8757 51.8828 64.0322 55.4738 60.4411C59.065 56.8499 64.9087 56.8499 68.4995 60.4411C72.0906 64.032 72.0906 69.8755 68.4996 73.4666Z" fill="url(#paint5_linear_570_31)"/>
<path d="M76.255 96.5374L76.1503 96.588C75.6 96.8523 75.3679 97.5125 75.632 98.0627C75.822 98.4587 76.2174 98.6901 76.6292 98.6901C76.7897 98.6901 76.9526 98.6549 77.1067 98.581L77.2181 98.5274C77.7676 98.2613 77.9974 97.6004 77.7313 97.051C77.4657 96.5015 76.8049 96.2714 76.255 96.5374Z" fill="url(#paint6_linear_570_31)"/>
</g>
<rect x="1" y="6.5" width="121" height="121" rx="60.5" stroke="black"/>
<rect x="1" y="6.5" width="121" height="121" rx="60.5" stroke="url(#paint7_linear_570_31)"/>
<rect x="54.5" y="1" width="14" height="14" rx="7" fill="white" stroke="url(#paint8_linear_570_31)" stroke-width="2"/>
<defs>
<linearGradient id="paint0_linear_570_31" x1="65.4928" y1="97.5346" x2="64.5763" y2="105.781" gradientUnits="userSpaceOnUse">
<stop offset="0.23" stop-color="#6B1D5D"/>
<stop offset="0.779815" stop-color="#FFBA45"/>
</linearGradient>
<linearGradient id="paint1_linear_570_31" x1="36.0559" y1="-30.0968" x2="6.13298" y2="229.301" gradientUnits="userSpaceOnUse">
<stop offset="0.23" stop-color="#6B1D5D"/>
<stop offset="0.779815" stop-color="#FFBA45"/>
</linearGradient>
<linearGradient id="paint2_linear_570_31" x1="40.4253" y1="-13.7435" x2="15.5423" y2="201.965" gradientUnits="userSpaceOnUse">
<stop offset="0.23" stop-color="#6B1D5D"/>
<stop offset="0.779815" stop-color="#FFBA45"/>
</linearGradient>
<linearGradient id="paint3_linear_570_31" x1="69.9896" y1="96.6153" x2="69.0658" y2="104.937" gradientUnits="userSpaceOnUse">
<stop offset="0.23" stop-color="#6B1D5D"/>
<stop offset="0.779815" stop-color="#FFBA45"/>
</linearGradient>
<linearGradient id="paint4_linear_570_31" x1="52.082" y1="4.59505" x2="30.0076" y2="195.862" gradientUnits="userSpaceOnUse">
<stop offset="0.23" stop-color="#6B1D5D"/>
<stop offset="0.779815" stop-color="#FFBA45"/>
</linearGradient>
<linearGradient id="paint5_linear_570_31" x1="53.5245" y1="35.2843" x2="43.7647" y2="119.891" gradientUnits="userSpaceOnUse">
<stop offset="0.23" stop-color="#6B1D5D"/>
<stop offset="0.779815" stop-color="#FFBA45"/>
</linearGradient>
<linearGradient id="paint6_linear_570_31" x1="75.823" y1="94.419" x2="74.8782" y2="102.811" gradientUnits="userSpaceOnUse">
<stop offset="0.23" stop-color="#6B1D5D"/>
<stop offset="0.779815" stop-color="#FFBA45"/>
</linearGradient>
<linearGradient id="paint7_linear_570_31" x1="17.0245" y1="-99.4516" x2="-34.272" y2="345.23" gradientUnits="userSpaceOnUse">
<stop offset="0.23" stop-color="#6B1D5D"/>
<stop offset="0.779815" stop-color="#FFBA45"/>
</linearGradient>
<linearGradient id="paint8_linear_570_31" x1="55.5699" y1="-14.1935" x2="48.7304" y2="45.0974" gradientUnits="userSpaceOnUse">
<stop offset="0.23" stop-color="#6B1D5D"/>
<stop offset="0.779815" stop-color="#FFBA45"/>
</linearGradient>
<clipPath id="clip0_570_31">
<rect width="70" height="70" fill="white" transform="translate(27 32)"/>
</clipPath>
</defs>
</svg>
