<svg width="32" height="32" viewBox="0 0 32 32" fill="none" xmlns="http://www.w3.org/2000/svg">
<g clip-path="url(#clip0_540_3119)">
<path d="M5.33317 2.66699C3.86384 2.66699 2.6665 3.86433 2.6665 5.33366V26.667C2.6665 28.1363 3.86384 29.3337 5.33317 29.3337H26.6665C28.1358 29.3337 29.3332 28.1363 29.3332 26.667V5.33366C29.3332 3.86433 28.1358 2.66699 26.6665 2.66699H5.33317ZM5.33317 5.33366H26.6665V10.667H21.9372C21.1908 9.82979 20.2762 9.15953 19.2531 8.70001C18.23 8.24049 17.1214 8.00207 15.9998 8.00033C14.8783 8.00207 13.7697 8.24049 12.7466 8.70001C11.7235 9.15953 10.8088 9.82979 10.0625 10.667H5.33317V5.33366ZM22.6665 6.66699V9.33366H25.3332V6.66699H22.6665ZM15.9998 10.667C18.9638 10.667 21.3332 13.0363 21.3332 16.0003C21.3332 18.9643 18.9638 21.3337 15.9998 21.3337C13.0358 21.3337 10.6665 18.9643 10.6665 16.0003C10.6665 13.0363 13.0358 10.667 15.9998 10.667ZM15.9998 13.3337C15.7332 13.3337 15.4692 13.3337 15.2025 13.4643C15.5985 13.735 15.9998 14.1363 15.9998 14.667C15.9998 15.4697 15.4692 16.0003 14.6665 16.0003C14.1358 16.0003 13.7332 15.7337 13.4638 15.203C13.3332 15.4697 13.3332 15.735 13.3332 16.0003C13.3332 17.4697 14.5305 18.667 15.9998 18.667C17.4692 18.667 18.6665 17.4697 18.6665 16.0003C18.6665 14.531 17.4692 13.3337 15.9998 13.3337Z" fill="black"/>
</g>
<defs>
<clipPath id="clip0_540_3119">
<rect width="32" height="32" fill="white"/>
</clipPath>
</defs>
</svg>
