<svg width="102" height="103" viewBox="0 0 102 103" fill="none" xmlns="http://www.w3.org/2000/svg">
<path d="M76.9125 26.5054C64.5562 26.5054 54.5332 36.541 54.5332 48.9201C54.5332 61.2993 64.5564 71.3349 76.9125 71.3349C89.2686 71.3349 99.2858 61.2993 99.2858 48.9201C99.2858 36.541 89.2688 26.5054 76.9125 26.5054ZM76.9125 65.7311C67.6589 65.7311 60.1295 58.1906 60.1295 48.9201C60.1295 39.6496 67.6589 32.1091 76.9125 32.1091C86.1661 32.1091 93.6924 39.6496 93.6924 48.9201C93.6924 58.1906 86.1661 65.7311 76.9125 65.7311Z" fill="url(#paint0_linear_540_3412)"/>
<path d="M44.7526 48.9201C44.7526 36.541 34.7325 26.5054 22.3733 26.5054C10.017 26.5054 0 36.541 0 48.9201C0 61.2993 10.017 71.3349 22.3733 71.3349C34.7325 71.3349 44.7526 61.2993 44.7526 48.9201ZM29.1302 54.6878C28.7544 55.3981 28.2333 55.9901 27.5788 56.4728C26.9183 56.9585 26.1305 57.3168 25.2154 57.5536C24.8124 57.6568 24.3943 57.7267 23.9669 57.7844V60.4588H20.7793V57.8392C19.8764 57.7603 19.0067 57.6206 18.1916 57.396C16.9432 57.05 15.3102 55.6718 15.3102 55.6718C15.1679 55.5899 15.0769 55.4473 15.0587 55.2864C15.0405 55.1255 15.0952 54.9647 15.2072 54.8462L16.804 53.2494C16.9768 53.0794 17.2434 53.046 17.4493 53.1734C17.4493 53.1734 18.6462 54.2146 19.5491 54.4636C20.4551 54.7065 21.355 54.8279 22.2488 54.8279C23.379 54.8279 24.3123 54.6305 25.0546 54.2328C25.7969 53.826 26.1665 53.2069 26.1665 52.3569C26.1665 51.7437 25.9846 51.2581 25.6181 50.9058C25.2576 50.5536 24.6394 50.329 23.7668 50.2319L20.9065 49.989C19.2157 49.819 17.9068 49.3516 16.9917 48.5745C16.0706 47.7974 15.6131 46.6135 15.6131 45.035C15.6131 44.1667 15.7919 43.3867 16.1433 42.7036C16.4949 42.0176 16.9797 41.4408 17.5917 40.9703C18.2037 40.4998 18.9128 40.1477 19.7248 39.9109C20.0641 39.8138 20.4217 39.7469 20.7793 39.6863V37.3853H23.9669V39.6438C24.7123 39.7166 25.4213 39.8349 26.0789 40.0141C27.197 40.3237 28.3725 41.2405 28.3725 41.2405C28.518 41.3194 28.618 41.4591 28.6423 41.626C28.6665 41.7899 28.612 41.9539 28.4999 42.0722L27.0031 43.5961C26.8394 43.7601 26.5941 43.8027 26.3911 43.6933C26.3911 43.6933 25.5033 43.0619 24.7368 42.8616C23.9731 42.6613 23.1672 42.5641 22.3188 42.5641C21.2129 42.5641 20.3979 42.7736 19.8675 43.1955C19.3373 43.6235 19.0767 44.1792 19.0767 44.8591C19.0767 45.4723 19.2586 45.9459 19.6402 46.2737C20.016 46.6045 20.6492 46.8202 21.5431 46.9111L24.0489 47.1236C25.9063 47.2876 27.3122 47.7793 28.2636 48.605C29.2211 49.4307 29.6968 50.6358 29.6968 52.2114C29.6968 53.1579 29.5058 53.9836 29.1302 54.6878Z" fill="url(#paint1_linear_540_3412)"/>
<path d="M83.1058 54.8089C82.7691 55.5329 82.3062 56.1368 81.7205 56.6314C81.1322 57.1246 80.4285 57.492 79.6107 57.7343C79.2533 57.8379 78.8789 57.9098 78.4988 57.9687V60.6993H75.656V58.0234C74.8463 57.945 74.0724 57.8005 73.3437 57.5704C72.2311 57.221 70.7743 55.8104 70.7743 55.8104C70.6495 55.727 70.5667 55.5804 70.5491 55.4179C70.531 55.2539 70.5799 55.0886 70.6821 54.9721L72.1063 53.3386C72.26 53.1647 72.4983 53.1316 72.6827 53.261C72.6827 53.261 73.7488 54.3222 74.5566 54.5752C75.3644 54.8269 76.1659 54.9534 76.9655 54.9534C77.9739 54.9534 78.8074 54.7492 79.4684 54.3409C80.1307 53.9296 80.4606 53.2941 80.4606 52.4256C80.4606 51.8001 80.2988 51.3068 79.972 50.9445C79.6465 50.585 79.0959 50.3586 78.3188 50.2593L75.7676 50.0077C74.2568 49.8387 73.0916 49.3556 72.2731 48.564C71.4522 47.7695 71.0446 46.5646 71.0446 44.9541C71.0446 44.0626 71.2013 43.2689 71.5168 42.5708C71.8329 41.8727 72.2619 41.2832 72.8081 40.8029C73.3537 40.3212 73.9897 39.9603 74.7134 39.7202C75.0163 39.6195 75.3336 39.5534 75.656 39.493V37.1406H78.4988V39.4456C79.1623 39.5204 79.7939 39.6426 80.3815 39.8281C81.3787 40.1401 82.426 41.0791 82.426 41.0791C82.5571 41.1568 82.6461 41.3034 82.6687 41.4702C82.6913 41.6399 82.643 41.8067 82.5395 41.9289L81.2037 43.4833C81.0613 43.6487 80.8412 43.6918 80.6593 43.584C80.6593 43.584 79.8685 42.9384 79.1849 42.7342C78.5019 42.53 77.7845 42.4264 77.0288 42.4264C76.041 42.4264 75.311 42.6436 74.8401 43.0756C74.3672 43.5106 74.1326 44.0757 74.1326 44.7724C74.1326 45.4 74.2976 45.8803 74.6356 46.2153C74.9711 46.5532 75.5374 46.7724 76.3358 46.8652L78.5715 47.0838C80.2291 47.252 81.484 47.7567 82.3338 48.5986C83.1848 49.4419 83.6094 50.6699 83.6094 52.2804C83.6094 53.2459 83.4414 54.0864 83.1058 54.8089Z" fill="url(#paint2_linear_540_3412)"/>
<path d="M30.239 22.8263C35.5293 18.6736 42.171 16.1966 49.4187 16.1966C49.5096 16.1966 49.6006 16.2026 49.6914 16.2026L47.3552 23.2754L70.592 17.5868L54.6029 1.32812L51.7517 9.96745C50.9792 9.91888 50.2004 9.88857 49.4187 9.88857C39.0986 9.88857 29.7238 14.0898 22.9671 20.8652C22.7247 21.1081 22.4943 21.357 22.2642 21.6029C22.3006 21.6029 22.3369 21.5998 22.3733 21.5998C25.1182 21.5998 27.7604 22.0309 30.239 22.8263Z" fill="url(#paint3_linear_540_3412)"/>
<path d="M69.047 75.0138C63.7568 79.1665 57.1151 81.6435 49.8674 81.6466C49.7764 81.6466 49.6855 81.6375 49.5947 81.6375L51.9307 74.5645L28.6938 80.2531L44.683 96.5118L47.5342 87.8725C48.3067 87.921 49.0855 87.9513 49.8672 87.9513C60.1873 87.9513 69.5621 83.7501 76.3188 76.9747C76.5612 76.7349 76.7915 76.4829 77.0217 76.2401C76.9853 76.2401 76.949 76.2401 76.9125 76.2401C74.1676 76.2401 71.5255 75.809 69.047 75.0138Z" fill="url(#paint4_linear_540_3412)"/>
<defs>
<linearGradient id="paint0_linear_540_3412" x1="60.3229" y1="-13.2627" x2="41.1275" y2="152.854" gradientUnits="userSpaceOnUse">
<stop offset="0.23" stop-color="#6B1D5D"/>
<stop offset="0.779815" stop-color="#FFBA45"/>
</linearGradient>
<linearGradient id="paint1_linear_540_3412" x1="5.78967" y1="-13.2627" x2="-13.4057" y2="152.854" gradientUnits="userSpaceOnUse">
<stop offset="0.23" stop-color="#6B1D5D"/>
<stop offset="0.779815" stop-color="#FFBA45"/>
</linearGradient>
<linearGradient id="paint2_linear_540_3412" x1="72.2355" y1="16.2418" x2="54.5964" y2="101.035" gradientUnits="userSpaceOnUse">
<stop offset="0.23" stop-color="#6B1D5D"/>
<stop offset="0.779815" stop-color="#FFBA45"/>
</linearGradient>
<linearGradient id="paint3_linear_540_3412" x1="28.5164" y1="-18.1413" x2="24.2109" y2="64.0452" gradientUnits="userSpaceOnUse">
<stop offset="0.23" stop-color="#6B1D5D"/>
<stop offset="0.779815" stop-color="#FFBA45"/>
</linearGradient>
<linearGradient id="paint4_linear_540_3412" x1="34.9461" y1="55.0951" x2="30.6406" y2="137.282" gradientUnits="userSpaceOnUse">
<stop offset="0.23" stop-color="#6B1D5D"/>
<stop offset="0.779815" stop-color="#FFBA45"/>
</linearGradient>
</defs>
</svg>
