<svg width="102" height="103" viewBox="0 0 102 103" fill="none" xmlns="http://www.w3.org/2000/svg">
<path d="M19.0483 65.375C23.6136 65.375 27.3637 61.618 27.3637 57.0442C27.3637 52.4704 23.6136 48.7134 19.0483 48.7134C14.483 48.7134 10.7329 52.4704 10.7329 57.0442C10.7329 61.618 14.483 65.375 19.0483 65.375ZM19.0483 51.9804C21.8201 51.9804 24.1028 54.2673 24.1028 57.0442C24.1028 59.8211 21.8201 62.108 19.0483 62.108C16.2765 62.108 13.9939 59.8211 13.9939 57.0442C13.9939 54.2673 16.2765 51.9804 19.0483 51.9804Z" fill="url(#paint0_linear_540_3424)"/>
<path d="M22.4722 66.5186H15.6242C9.26537 66.5186 4.04785 71.7457 4.04785 78.1164V87.5906H34.0485V78.1164C34.0485 71.7457 28.831 66.5186 22.4722 66.5186ZM30.7876 84.3236H7.3088V78.1164C7.3088 75.8295 8.28708 73.7059 9.75451 72.2358C11.2219 70.7656 13.3415 69.7855 15.6242 69.7855H22.4722C24.7549 69.7855 26.8745 70.7656 28.3419 72.2358C29.8093 73.7059 30.7876 75.8295 30.7876 78.1164V84.3236Z" fill="url(#paint1_linear_540_3424)"/>
<path d="M75.2998 57.0442C75.2998 61.618 79.0499 65.375 83.6152 65.375C88.1805 65.375 91.9306 61.618 91.9306 57.0442C91.9306 52.4704 88.1805 48.7134 83.6152 48.7134C79.0499 48.7134 75.2998 52.4704 75.2998 57.0442ZM83.6152 51.9804C86.387 51.9804 88.6697 54.2673 88.6697 57.0442C88.6697 59.8211 86.387 62.108 83.6152 62.108C80.8434 62.108 78.5607 59.8211 78.5607 57.0442C78.5607 54.2673 80.8434 51.9804 83.6152 51.9804Z" fill="url(#paint2_linear_540_3424)"/>
<path d="M87.0391 66.5186H80.1911C73.8323 66.5186 68.6147 71.7457 68.6147 78.1164V87.5906H98.6154V78.1164C98.6154 71.7457 93.3979 66.5186 87.0391 66.5186ZM95.3545 84.3236H71.8757V78.1164C71.8757 75.8295 72.854 73.7059 74.3214 72.2358C75.7888 70.7656 77.9084 69.7855 80.1911 69.7855H87.0391C89.3218 69.7855 91.4414 70.7656 92.9088 72.2358C94.3762 73.7059 95.3545 75.8295 95.3545 78.1164V84.3236Z" fill="url(#paint3_linear_540_3424)"/>
<path d="M43.0161 57.0442C43.0161 61.618 46.7662 65.375 51.3315 65.375C55.8968 65.375 59.6469 61.618 59.6469 57.0442C59.6469 52.4704 55.8968 48.7134 51.3315 48.7134C46.7662 48.7134 43.0161 52.4704 43.0161 57.0442ZM51.3315 51.9804C54.1033 51.9804 56.386 54.2673 56.386 57.0442C56.386 59.8211 54.1033 62.108 51.3315 62.108C48.5597 62.108 46.2771 59.8211 46.2771 57.0442C46.2771 54.2673 48.5597 51.9804 51.3315 51.9804Z" fill="url(#paint4_linear_540_3424)"/>
<path d="M54.7554 66.5186H47.9074C41.5486 66.5186 36.3311 71.7457 36.3311 78.1164V87.5906H66.3318V78.1164C66.3318 71.7457 61.1142 66.5186 54.7554 66.5186ZM63.0708 84.3236H39.592V78.1164C39.592 75.8295 40.5703 73.7059 42.0377 72.2358C43.5051 70.7656 45.6247 69.7855 47.9074 69.7855H54.7554C57.0381 69.7855 59.1577 70.7656 60.6251 72.2358C62.0925 73.7059 63.0708 75.8295 63.0708 78.1164V84.3236Z" fill="url(#paint5_linear_540_3424)"/>
<path d="M35.1899 23.231C39.7552 23.231 43.5053 19.4739 43.5053 14.9002C43.5053 10.3264 39.7552 6.56934 35.1899 6.56934C30.6246 6.56934 26.8745 10.3264 26.8745 14.9002C26.8745 19.4739 30.6246 23.231 35.1899 23.231ZM35.1899 9.83632C37.9617 9.83632 40.2444 12.1232 40.2444 14.9002C40.2444 17.6771 37.9617 19.964 35.1899 19.964C32.4181 19.964 30.1355 17.6771 30.1355 14.9002C30.1355 11.9599 32.4181 9.83632 35.1899 9.83632Z" fill="url(#paint6_linear_540_3424)"/>
<path d="M50.1902 35.9723C50.1902 29.6017 44.9726 24.3745 38.6138 24.3745H31.7658C25.407 24.3745 20.1895 29.6017 20.1895 35.9723V45.4466H50.1902V35.9723ZM46.9292 42.1796H23.4504V35.9723C23.4504 33.6854 24.4287 31.5619 25.8961 30.0917C27.3635 28.6216 29.4831 27.6415 31.7658 27.6415H38.6138C40.8965 27.6415 43.0161 28.6216 44.4835 30.0917C45.9509 31.5619 46.9292 33.6854 46.9292 35.9723V42.1796Z" fill="url(#paint7_linear_540_3424)"/>
<path d="M67.4731 23.231C72.0385 23.231 75.7885 19.4739 75.7885 14.9002C75.7885 10.3264 72.0385 6.56934 67.4731 6.56934C62.9078 6.56934 59.1577 10.3264 59.1577 14.9002C59.1577 19.4739 62.9078 23.231 67.4731 23.231ZM67.4731 9.83632C70.2449 9.83632 72.5276 12.1232 72.5276 14.9002C72.5276 17.6771 70.2449 19.964 67.4731 19.964C64.7013 19.964 62.4187 17.6771 62.4187 14.9002C62.4187 11.9599 64.7013 9.83632 67.4731 9.83632Z" fill="url(#paint8_linear_540_3424)"/>
<path d="M82.4738 35.9723C82.4738 29.6017 77.2563 24.3745 70.8975 24.3745H64.0495C57.6907 24.3745 52.4731 29.6017 52.4731 35.9723V45.4466H82.4738V35.9723ZM79.2129 42.1796H55.7341V35.9723C55.7341 33.6854 56.7124 31.5619 58.1798 30.0917C59.6472 28.6216 61.7668 27.6415 64.0495 27.6415H70.8975C73.1801 27.6415 75.2998 28.6216 76.7672 30.0917C78.2346 31.5619 79.2129 33.6854 79.2129 35.9723V42.1796Z" fill="url(#paint9_linear_540_3424)"/>
<defs>
<linearGradient id="paint0_linear_540_3424" x1="12.8844" y1="33.9329" x2="5.74924" y2="95.6726" gradientUnits="userSpaceOnUse">
<stop offset="0.23" stop-color="#6B1D5D"/>
<stop offset="0.779815" stop-color="#FFBA45"/>
</linearGradient>
<linearGradient id="paint1_linear_540_3424" x1="7.92906" y1="47.8256" x2="1.55981" y2="126.435" gradientUnits="userSpaceOnUse">
<stop offset="0.23" stop-color="#6B1D5D"/>
<stop offset="0.779815" stop-color="#FFBA45"/>
</linearGradient>
<linearGradient id="paint2_linear_540_3424" x1="77.4513" y1="33.9329" x2="70.3161" y2="95.6726" gradientUnits="userSpaceOnUse">
<stop offset="0.23" stop-color="#6B1D5D"/>
<stop offset="0.779815" stop-color="#FFBA45"/>
</linearGradient>
<linearGradient id="paint3_linear_540_3424" x1="72.496" y1="47.8256" x2="66.1267" y2="126.435" gradientUnits="userSpaceOnUse">
<stop offset="0.23" stop-color="#6B1D5D"/>
<stop offset="0.779815" stop-color="#FFBA45"/>
</linearGradient>
<linearGradient id="paint4_linear_540_3424" x1="45.1677" y1="33.9329" x2="38.0324" y2="95.6726" gradientUnits="userSpaceOnUse">
<stop offset="0.23" stop-color="#6B1D5D"/>
<stop offset="0.779815" stop-color="#FFBA45"/>
</linearGradient>
<linearGradient id="paint5_linear_540_3424" x1="40.2123" y1="47.8256" x2="33.843" y2="126.435" gradientUnits="userSpaceOnUse">
<stop offset="0.23" stop-color="#6B1D5D"/>
<stop offset="0.779815" stop-color="#FFBA45"/>
</linearGradient>
<linearGradient id="paint6_linear_540_3424" x1="29.0261" y1="-8.21115" x2="21.8908" y2="53.5286" gradientUnits="userSpaceOnUse">
<stop offset="0.23" stop-color="#6B1D5D"/>
<stop offset="0.779815" stop-color="#FFBA45"/>
</linearGradient>
<linearGradient id="paint7_linear_540_3424" x1="24.0707" y1="5.68155" x2="17.7014" y2="84.2909" gradientUnits="userSpaceOnUse">
<stop offset="0.23" stop-color="#6B1D5D"/>
<stop offset="0.779815" stop-color="#FFBA45"/>
</linearGradient>
<linearGradient id="paint8_linear_540_3424" x1="61.3093" y1="-8.21115" x2="54.174" y2="53.5286" gradientUnits="userSpaceOnUse">
<stop offset="0.23" stop-color="#6B1D5D"/>
<stop offset="0.779815" stop-color="#FFBA45"/>
</linearGradient>
<linearGradient id="paint9_linear_540_3424" x1="56.3544" y1="5.68155" x2="49.9851" y2="84.2909" gradientUnits="userSpaceOnUse">
<stop offset="0.23" stop-color="#6B1D5D"/>
<stop offset="0.779815" stop-color="#FFBA45"/>
</linearGradient>
</defs>
</svg>
