<svg width="123" height="128" viewBox="0 0 123 128" fill="none" xmlns="http://www.w3.org/2000/svg">
<rect x="1" y="6.5" width="121" height="121" rx="60.5" stroke="black"/>
<rect x="1" y="6.5" width="121" height="121" rx="60.5" stroke="url(#paint0_linear_570_29)"/>
<g clip-path="url(#clip0_570_29)">
<path d="M30.7755 35H93.2245C94.7549 35 96 36.2451 96 37.7755V100.224C96 101.755 94.7549 103 93.2245 103H30.7755C29.2451 103 28 101.755 28 100.224V37.7755C28 36.2451 29.2451 35 30.7755 35ZM30.7755 100.224H93.2245V47.4898H30.7755V100.224ZM30.7755 44.7143H93.2245V37.7755H30.7755V44.7143Z" fill="url(#paint1_linear_570_29)"/>
<path d="M85.5921 39.8574H90.4492V42.6329H85.5921V39.8574Z" fill="url(#paint2_linear_570_29)"/>
<path d="M78.6531 39.8574H83.5103V42.6329H78.6531V39.8574Z" fill="url(#paint3_linear_570_29)"/>
<path d="M33.5511 39.8574H38.4082V42.6329H33.5511V39.8574Z" fill="url(#paint4_linear_570_29)"/>
<path d="M79.347 76.6326H76.9612C76.822 77.0119 76.6713 77.3795 76.5096 77.7345L78.1912 79.4259C78.7151 79.9497 79.0036 80.6457 79.0036 81.3857C79.0036 82.1256 78.7149 82.8216 78.1912 83.3453L74.264 87.2725C73.7401 87.7964 73.0441 88.0849 72.3042 88.0849C71.5642 88.0849 70.8683 87.7964 70.3473 87.2754L68.653 85.591C68.2982 85.7525 67.9304 85.9032 67.5511 86.0424V88.4284C67.5511 89.9588 66.306 91.2039 64.7756 91.2039H59.2246C57.6942 91.2039 56.4491 89.9588 56.4489 88.4284V86.0424C56.0697 85.9032 55.7021 85.7525 55.3471 85.5908L53.6557 87.2724C53.1318 87.7963 52.4358 88.0848 51.6959 88.0848C50.9559 88.0848 50.26 87.7961 49.7362 87.2724L45.809 83.3452C45.2852 82.8213 44.9966 82.1253 44.9966 81.3854C44.9966 80.6454 45.2852 79.9495 45.8061 79.4285L47.4906 77.7342C47.329 77.3793 47.1783 77.0116 47.0391 76.6323H44.6532C43.1228 76.6323 41.8777 75.3872 41.8777 73.8568V68.3058C41.8777 66.7754 43.1228 65.5303 44.6532 65.5303H47.0391C47.1783 65.151 47.329 64.7834 47.4907 64.4284L45.8092 62.737C45.2853 62.2131 44.9968 61.5172 44.9968 60.7772C44.9968 60.0373 45.2854 59.3413 45.8092 58.8176L49.7364 54.8904C50.2603 54.3665 50.9562 54.078 51.6962 54.078C52.4361 54.078 53.1321 54.3665 53.653 54.8874L55.3474 56.5719C55.7022 56.4104 56.07 56.2597 56.4492 56.1205V53.7345C56.4492 52.2041 57.6943 50.959 59.2247 50.959H64.7758C66.3062 50.959 67.5513 52.2041 67.5513 53.7345V56.1205C67.9305 56.2597 68.2982 56.4104 68.6531 56.572L70.3445 54.8905C70.8684 54.3666 71.5644 54.0781 72.3043 54.0781C73.0443 54.0781 73.7402 54.3668 74.264 54.8905L78.1912 58.8177C78.7151 59.3416 79.0036 60.0375 79.0036 60.7775C79.0036 61.5174 78.7151 62.2134 78.1941 62.7344L76.5096 64.4287C76.6712 64.7835 76.8219 65.1513 76.9611 65.5306H79.347C80.8775 65.5306 82.1226 66.7756 82.1226 68.3061V73.8571C82.1226 75.3875 80.8775 76.6326 79.347 76.6326ZM79.347 68.3058H75.9606C75.3478 68.3058 74.8076 67.9038 74.6315 67.3167C74.3577 66.4043 74.0127 65.5654 73.6059 64.8235C73.31 64.2841 73.4048 63.6143 73.8386 63.1779L76.2283 60.7803L72.3042 56.8558L69.9034 59.2426C69.4671 59.6764 68.7973 59.771 68.2578 59.4754C67.5159 59.0686 66.677 58.7236 65.7645 58.4498C65.1774 58.2738 64.7755 57.7334 64.7755 57.1206V53.7345H59.2245V57.1209C59.2245 57.7337 58.8224 58.274 58.2354 58.4501C57.323 58.7239 56.4841 59.0689 55.7422 59.4756C55.2027 59.7715 54.5332 59.6769 54.0966 59.2429L51.6989 56.8532L47.7745 60.7774L50.1613 63.1782C50.5951 63.6145 50.6899 64.2842 50.394 64.8238C49.9873 65.5657 49.6423 66.4046 49.3685 67.317C49.1925 67.9042 48.6521 68.3061 48.0393 68.3061H44.6532V73.8571H48.0393C48.6521 73.8571 49.1924 74.2591 49.3685 74.8461C49.6423 75.7586 49.9873 76.5975 50.394 77.3394C50.6899 77.8788 50.5951 78.5485 50.1613 78.985L47.7716 81.3826L51.6957 85.307L54.0966 82.9202C54.5332 82.4864 55.2027 82.3916 55.7422 82.6875C56.4841 83.0943 57.323 83.4393 58.2354 83.7131C58.8226 83.889 59.2245 84.4294 59.2245 85.0423V88.4284H64.7755V85.0421C64.7755 84.4293 65.1775 83.889 65.7645 83.7129C66.677 83.4391 67.5159 83.0941 68.2578 82.6874C68.4675 82.5725 68.6969 82.5165 68.9246 82.5165C69.2828 82.5165 69.6366 82.6549 69.9037 82.92L72.3013 85.3097L76.2257 81.3855L73.8389 78.9847C73.4051 78.5484 73.3103 77.8787 73.6062 77.3391C74.0129 76.5972 74.3579 75.7583 74.6317 74.8459C74.8077 74.2587 75.3481 73.8568 75.9609 73.8568H79.347V68.3058Z" fill="url(#paint5_linear_570_29)"/>
<path d="M62.0002 78.0201C58.1741 78.0201 55.0614 74.9074 55.0614 71.0814C55.0614 67.2553 58.1741 64.1426 62.0002 64.1426C65.8262 64.1426 68.939 67.2553 68.939 71.0814C68.939 74.9074 65.8262 78.0201 62.0002 78.0201ZM62.0002 66.9181C59.7046 66.9181 57.8369 68.7857 57.8369 71.0814C57.8369 73.377 59.7046 75.2446 62.0002 75.2446C64.2958 75.2446 66.1635 73.377 66.1635 71.0814C66.1635 68.7857 64.2958 66.9181 62.0002 66.9181Z" fill="url(#paint6_linear_570_29)"/>
<path d="M40.4896 55.8164H43.2651V58.5919H40.4896V55.8164Z" fill="url(#paint7_linear_570_29)"/>
<path d="M36.3265 55.8164H39.1021V58.5919H36.3265V55.8164Z" fill="url(#paint8_linear_570_29)"/>
<path d="M32.1635 55.8164H34.939V58.5919H32.1635V55.8164Z" fill="url(#paint9_linear_570_29)"/>
<path d="M89.0614 83.5713H91.8369V86.3468H89.0614V83.5713Z" fill="url(#paint10_linear_570_29)"/>
<path d="M84.8978 83.5713H87.6733V86.3468H84.8978V83.5713Z" fill="url(#paint11_linear_570_29)"/>
<path d="M80.7347 83.5713H83.5103V86.3468H80.7347V83.5713Z" fill="url(#paint12_linear_570_29)"/>
<path d="M37.0203 94.6738H86.9795V97.4493H37.0203V94.6738Z" fill="url(#paint13_linear_570_29)"/>
</g>
<rect x="54.5" y="1" width="14" height="14" rx="7" fill="white" stroke="url(#paint14_linear_570_29)" stroke-width="2"/>
<defs>
<linearGradient id="paint0_linear_570_29" x1="17.0245" y1="-99.4516" x2="-34.272" y2="345.23" gradientUnits="userSpaceOnUse">
<stop offset="0.23" stop-color="#6B1D5D"/>
<stop offset="0.779815" stop-color="#FFBA45"/>
</linearGradient>
<linearGradient id="paint1_linear_570_29" x1="87.2028" y1="-25.3226" x2="116.271" y2="226.664" gradientUnits="userSpaceOnUse">
<stop offset="0.23" stop-color="#6B1D5D"/>
<stop offset="0.779815" stop-color="#FFBA45"/>
</linearGradient>
<linearGradient id="paint2_linear_570_29" x1="89.8208" y1="37.3953" x2="90.5049" y2="47.7722" gradientUnits="userSpaceOnUse">
<stop offset="0.23" stop-color="#6B1D5D"/>
<stop offset="0.779815" stop-color="#FFBA45"/>
</linearGradient>
<linearGradient id="paint3_linear_570_29" x1="82.8819" y1="37.3953" x2="83.5659" y2="47.7722" gradientUnits="userSpaceOnUse">
<stop offset="0.23" stop-color="#6B1D5D"/>
<stop offset="0.779815" stop-color="#FFBA45"/>
</linearGradient>
<linearGradient id="paint4_linear_570_29" x1="37.7798" y1="37.3953" x2="38.4639" y2="47.7722" gradientUnits="userSpaceOnUse">
<stop offset="0.23" stop-color="#6B1D5D"/>
<stop offset="0.779815" stop-color="#FFBA45"/>
</linearGradient>
<linearGradient id="paint5_linear_570_29" x1="76.9161" y1="15.2579" x2="94.1196" y2="164.393" gradientUnits="userSpaceOnUse">
<stop offset="0.23" stop-color="#6B1D5D"/>
<stop offset="0.779815" stop-color="#FFBA45"/>
</linearGradient>
<linearGradient id="paint6_linear_570_29" x1="67.1436" y1="51.8318" x2="73.0759" y2="103.258" gradientUnits="userSpaceOnUse">
<stop offset="0.23" stop-color="#6B1D5D"/>
<stop offset="0.779815" stop-color="#FFBA45"/>
</linearGradient>
<linearGradient id="paint7_linear_570_29" x1="42.9061" y1="53.3543" x2="44.0925" y2="63.6394" gradientUnits="userSpaceOnUse">
<stop offset="0.23" stop-color="#6B1D5D"/>
<stop offset="0.779815" stop-color="#FFBA45"/>
</linearGradient>
<linearGradient id="paint8_linear_570_29" x1="38.743" y1="53.3543" x2="39.9294" y2="63.6394" gradientUnits="userSpaceOnUse">
<stop offset="0.23" stop-color="#6B1D5D"/>
<stop offset="0.779815" stop-color="#FFBA45"/>
</linearGradient>
<linearGradient id="paint9_linear_570_29" x1="34.5799" y1="53.3543" x2="35.7663" y2="63.6394" gradientUnits="userSpaceOnUse">
<stop offset="0.23" stop-color="#6B1D5D"/>
<stop offset="0.779815" stop-color="#FFBA45"/>
</linearGradient>
<linearGradient id="paint10_linear_570_29" x1="91.4778" y1="81.1091" x2="92.6643" y2="91.3943" gradientUnits="userSpaceOnUse">
<stop offset="0.23" stop-color="#6B1D5D"/>
<stop offset="0.779815" stop-color="#FFBA45"/>
</linearGradient>
<linearGradient id="paint11_linear_570_29" x1="87.3143" y1="81.1091" x2="88.5007" y2="91.3943" gradientUnits="userSpaceOnUse">
<stop offset="0.23" stop-color="#6B1D5D"/>
<stop offset="0.779815" stop-color="#FFBA45"/>
</linearGradient>
<linearGradient id="paint12_linear_570_29" x1="83.1512" y1="81.1091" x2="84.3376" y2="91.3943" gradientUnits="userSpaceOnUse">
<stop offset="0.23" stop-color="#6B1D5D"/>
<stop offset="0.779815" stop-color="#FFBA45"/>
</linearGradient>
<linearGradient id="paint13_linear_570_29" x1="80.5162" y1="92.2117" x2="80.583" y2="102.633" gradientUnits="userSpaceOnUse">
<stop offset="0.23" stop-color="#6B1D5D"/>
<stop offset="0.779815" stop-color="#FFBA45"/>
</linearGradient>
<linearGradient id="paint14_linear_570_29" x1="55.5699" y1="-14.1935" x2="48.7304" y2="45.0974" gradientUnits="userSpaceOnUse">
<stop offset="0.23" stop-color="#6B1D5D"/>
<stop offset="0.779815" stop-color="#FFBA45"/>
</linearGradient>
<clipPath id="clip0_570_29">
<rect width="68" height="68" fill="white" transform="matrix(-1 0 0 1 96 35)"/>
</clipPath>
</defs>
</svg>
