<svg width="32" height="32" viewBox="0 0 32 32" fill="none" xmlns="http://www.w3.org/2000/svg">
<path d="M26.2401 2.55957H5.76006C3.99366 2.55957 2.56006 3.99317 2.56006 5.75957V26.2396C2.56006 28.006 3.99366 29.4396 5.76006 29.4396H26.2401C28.0065 29.4396 29.4401 28.006 29.4401 26.2396V5.75957C29.4401 3.99317 28.0065 2.55957 26.2401 2.55957ZM10.8801 12.7996V24.9596H7.04006V12.7996H10.8801ZM7.04006 9.26037C7.04006 8.36437 7.80806 7.67957 8.96006 7.67957C10.1121 7.67957 10.8353 8.36437 10.8801 9.26037C10.8801 10.1564 10.1633 10.8796 8.96006 10.8796C7.80806 10.8796 7.04006 10.1564 7.04006 9.26037ZM24.9601 24.9596H21.1201V18.5596C21.1201 17.2796 20.4801 15.9996 18.8801 15.974H18.8289C17.2801 15.974 16.6401 17.2924 16.6401 18.5596V24.9596H12.8001V12.7996H16.6401V14.438C16.6401 14.438 17.8753 12.7996 20.3585 12.7996C22.8993 12.7996 24.9601 14.5468 24.9601 18.086V24.9596Z" fill="black"/>
</svg>
