<svg width="32" height="32" viewBox="0 0 32 32" fill="none" xmlns="http://www.w3.org/2000/svg">
<path d="M26.2401 2.55957H5.76006C3.99366 2.55957 2.56006 3.99317 2.56006 5.75957V26.2396C2.56006 28.006 3.99366 29.4396 5.76006 29.4396H26.2401C28.0065 29.4396 29.4401 28.006 29.4401 26.2396V5.75957C29.4401 3.99317 28.0065 2.55957 26.2401 2.55957ZM23.6801 12.1596H22.4001C21.0305 12.1596 20.4801 12.4796 20.4801 13.4396V15.3596H23.6801L23.0401 18.5596H20.4801V28.1596H17.2801V18.5596H14.7201V15.3596H17.2801V13.4396C17.2801 10.8796 18.5601 8.95957 21.1201 8.95957C22.9761 8.95957 23.6801 9.59957 23.6801 9.59957V12.1596Z" fill="black"/>
</svg>
