<svg width="123" height="128" viewBox="0 0 123 128" fill="none" xmlns="http://www.w3.org/2000/svg">
<rect x="1" y="6.5" width="121" height="121" rx="60.5" stroke="url(#paint0_linear_570_28)"/>
<g clip-path="url(#clip0_570_28)">
<mask id="path-2-inside-1_570_28" fill="white">
<path d="M86.9677 81.4194H85.4379C87.7445 79.5553 89.2258 76.7068 89.2258 73.5161V69C89.2258 64.6431 85.6795 61.0968 81.3226 61.0968H76.8064C76.4226 61.0968 76.0477 61.134 75.6774 61.1871V40.7742H77.9355V34H26V40.7742H28.2581V73.5161H26V80.2903H52.399L58.0442 91.5806H68.9032V104H96V90.4516C96 85.4715 91.9479 81.4194 86.9677 81.4194ZM85.6389 86.4052L81.0561 88.3697L84.1847 83.6774H84.9569L85.6389 86.4052ZM76.6574 83.6774H81.4716L79.0645 87.2869L76.6574 83.6774ZM77.0706 88.3697L72.4879 86.4052L73.171 83.6774H73.9432L77.0706 88.3697ZM86.9689 73.5161C86.9677 77.8731 83.4215 81.4194 79.0645 81.4194C74.7076 81.4194 71.1613 77.8731 71.1613 73.5161H76.4429C78.4356 73.5161 80.3087 72.7394 81.7166 71.3315L82.2992 70.7489C83.4711 72.1985 85.1376 73.139 86.9689 73.419V73.5161ZM32.7742 61.0968V71.2581H47.8998C47.9179 71.2976 47.9247 71.3405 47.9439 71.3789L49.0119 73.5161H30.5161V40.7742H73.4194V61.8702C70.7537 63.1415 68.9032 65.8556 68.9032 69V73.5161H59.7208L56.2185 66.9497C55.4068 65.4289 53.8318 64.4839 52.1089 64.4839C50.6919 64.4839 49.4353 65.1342 48.5806 66.1368V61.0968H32.7742ZM46.3226 63.3548V69H35.0323V63.3548H46.3226ZM76.8064 63.3548H81.3226C84.4353 63.3548 86.9677 65.8873 86.9677 69V71.1271C85.6739 70.8403 84.5234 70.0714 83.7703 68.9424L82.6266 67.2274L80.119 69.735C79.1368 70.7173 77.8316 71.2581 76.4429 71.2581H71.1613V69C71.1613 65.8873 73.6937 63.3548 76.8064 63.3548ZM28.2581 36.2581H75.6774V38.5161H28.2581V36.2581ZM28.2581 78.0323V75.7742H50.141L51.27 78.0323H28.2581ZM62.129 89.3226H59.4397L49.9637 70.3706C49.7977 70.0376 49.7097 69.6661 49.7097 69.2969V69.1411C49.7097 67.8179 50.7856 66.7419 52.1089 66.7419C52.9963 66.7419 53.8081 67.2297 54.2258 68.0121L62.129 82.8295V89.3226ZM60.9244 75.7742H69.1652C69.3458 76.5668 69.6213 77.3221 69.9758 78.0323H62.129L60.9244 75.7742ZM63.3337 80.2903H71.5124C71.8771 80.6956 72.2677 81.0761 72.6923 81.4194H63.9355L63.3337 80.2903ZM93.7419 101.742H89.2258V97.2258H93.7419V101.742ZM93.7419 94.9677H89.2258V90.4516H86.9677V101.742H71.1613V89.3226H64.3871V83.6774H70.8452L69.8335 87.7239L79.0645 91.68L88.2966 87.7239L87.2884 83.6932C90.8742 83.8626 93.7419 86.824 93.7419 90.4516V94.9677Z"/>
</mask>
<path d="M86.9677 81.4194H85.4379C87.7445 79.5553 89.2258 76.7068 89.2258 73.5161V69C89.2258 64.6431 85.6795 61.0968 81.3226 61.0968H76.8064C76.4226 61.0968 76.0477 61.134 75.6774 61.1871V40.7742H77.9355V34H26V40.7742H28.2581V73.5161H26V80.2903H52.399L58.0442 91.5806H68.9032V104H96V90.4516C96 85.4715 91.9479 81.4194 86.9677 81.4194ZM85.6389 86.4052L81.0561 88.3697L84.1847 83.6774H84.9569L85.6389 86.4052ZM76.6574 83.6774H81.4716L79.0645 87.2869L76.6574 83.6774ZM77.0706 88.3697L72.4879 86.4052L73.171 83.6774H73.9432L77.0706 88.3697ZM86.9689 73.5161C86.9677 77.8731 83.4215 81.4194 79.0645 81.4194C74.7076 81.4194 71.1613 77.8731 71.1613 73.5161H76.4429C78.4356 73.5161 80.3087 72.7394 81.7166 71.3315L82.2992 70.7489C83.4711 72.1985 85.1376 73.139 86.9689 73.419V73.5161ZM32.7742 61.0968V71.2581H47.8998C47.9179 71.2976 47.9247 71.3405 47.9439 71.3789L49.0119 73.5161H30.5161V40.7742H73.4194V61.8702C70.7537 63.1415 68.9032 65.8556 68.9032 69V73.5161H59.7208L56.2185 66.9497C55.4068 65.4289 53.8318 64.4839 52.1089 64.4839C50.6919 64.4839 49.4353 65.1342 48.5806 66.1368V61.0968H32.7742ZM46.3226 63.3548V69H35.0323V63.3548H46.3226ZM76.8064 63.3548H81.3226C84.4353 63.3548 86.9677 65.8873 86.9677 69V71.1271C85.6739 70.8403 84.5234 70.0714 83.7703 68.9424L82.6266 67.2274L80.119 69.735C79.1368 70.7173 77.8316 71.2581 76.4429 71.2581H71.1613V69C71.1613 65.8873 73.6937 63.3548 76.8064 63.3548ZM28.2581 36.2581H75.6774V38.5161H28.2581V36.2581ZM28.2581 78.0323V75.7742H50.141L51.27 78.0323H28.2581ZM62.129 89.3226H59.4397L49.9637 70.3706C49.7977 70.0376 49.7097 69.6661 49.7097 69.2969V69.1411C49.7097 67.8179 50.7856 66.7419 52.1089 66.7419C52.9963 66.7419 53.8081 67.2297 54.2258 68.0121L62.129 82.8295V89.3226ZM60.9244 75.7742H69.1652C69.3458 76.5668 69.6213 77.3221 69.9758 78.0323H62.129L60.9244 75.7742ZM63.3337 80.2903H71.5124C71.8771 80.6956 72.2677 81.0761 72.6923 81.4194H63.9355L63.3337 80.2903ZM93.7419 101.742H89.2258V97.2258H93.7419V101.742ZM93.7419 94.9677H89.2258V90.4516H86.9677V101.742H71.1613V89.3226H64.3871V83.6774H70.8452L69.8335 87.7239L79.0645 91.68L88.2966 87.7239L87.2884 83.6932C90.8742 83.8626 93.7419 86.824 93.7419 90.4516V94.9677Z" fill="url(#paint1_linear_570_28)" stroke="url(#paint2_linear_570_28)" stroke-width="2" mask="url(#path-2-inside-1_570_28)"/>
<path d="M45.7189 49.9064L45.8005 50.3064H46.2088H48.0809V51.5645H46.2088H45.8005L45.7189 51.9645C45.5855 52.6178 45.3247 53.2266 44.9658 53.7671L44.7394 54.1079L45.0288 54.3972L46.3575 55.7259L45.4681 56.6153L44.1394 55.2866L43.8501 54.9973L43.5092 55.2236C42.9688 55.5825 42.36 55.8433 41.7067 55.9767L41.3067 56.0583V56.4666V58.3387H40.0486V56.4666V56.0583L39.6486 55.9767C38.9952 55.8433 38.3865 55.5825 37.846 55.2236L37.5052 54.9973L37.2159 55.2866L35.8872 56.6153L34.9978 55.7259L36.3265 54.3972L36.6158 54.1079L36.3895 53.7671C36.0306 53.2266 35.7697 52.6178 35.6364 51.9645L35.5548 51.5645H35.1465H33.2744V50.3064H35.1465H35.5548L35.6364 49.9064C35.7697 49.2531 36.0306 48.6443 36.3895 48.1038L36.6158 47.763L36.3265 47.4737L34.9978 46.145L35.8872 45.2556L37.2159 46.5843L37.5052 46.8737L37.846 46.6473C38.3865 46.2884 38.9952 46.0276 39.6486 45.8942L40.0486 45.8126V45.4043V43.5322H41.3067V45.4043V45.8126L41.7067 45.8942C42.36 46.0276 42.9688 46.2884 43.5092 46.6473L43.8501 46.8737L44.1394 46.5843L45.4681 45.2556L46.3575 46.145L45.0288 47.4737L44.7394 47.763L44.9658 48.1038C45.3247 48.6443 45.5855 49.2531 45.7189 49.9064ZM36.7905 50.9355C36.7905 53.079 38.5341 54.8225 40.6776 54.8225C42.8212 54.8225 44.5647 53.079 44.5647 50.9355C44.5647 48.7919 42.8212 47.0484 40.6776 47.0484C38.5341 47.0484 36.7905 48.7919 36.7905 50.9355Z" fill="url(#paint3_linear_570_28)" stroke="url(#paint4_linear_570_28)"/>
<path d="M60.4752 44.7903H60.2076L60.0591 45.0129L55.6914 51.5645H51.3389V50.3064H54.751H55.0186L55.167 50.0838L59.5347 43.5322H63.8873V44.7903H60.4752Z" fill="url(#paint5_linear_570_28)" stroke="url(#paint6_linear_570_28)"/>
<path d="M67.145 44.7903V43.5322H70.6611V44.7903H67.145Z" fill="url(#paint7_linear_570_28)" stroke="url(#paint8_linear_570_28)"/>
<path d="M55.355 59.3384H55.855V58.8384V56.5803V56.0803H55.355H53.0969H52.5969V56.5803V58.8384V59.3384H53.0969H55.355ZM51.3389 54.8223H57.1131V60.5965H51.3389V54.8223Z" fill="url(#paint9_linear_570_28)" stroke="url(#paint10_linear_570_28)"/>
<path d="M60.3711 58.3391V57.0811H63.8872V58.3391H60.3711Z" fill="url(#paint11_linear_570_28)" stroke="url(#paint12_linear_570_28)"/>
<path d="M67.145 58.3391V57.0811H70.6611V58.3391H67.145Z" fill="url(#paint13_linear_570_28)" stroke="url(#paint14_linear_570_28)"/>
</g>
<rect x="54.5" y="1" width="14" height="14" rx="7" fill="white" stroke="url(#paint15_linear_570_28)" stroke-width="2"/>
<defs>
<linearGradient id="paint0_linear_570_28" x1="17.0245" y1="-99.4516" x2="-34.272" y2="345.23" gradientUnits="userSpaceOnUse">
<stop offset="0.23" stop-color="#6B1D5D"/>
<stop offset="0.779815" stop-color="#FFBA45"/>
</linearGradient>
<linearGradient id="paint1_linear_570_28" x1="35.0559" y1="-28.0968" x2="5.13298" y2="231.301" gradientUnits="userSpaceOnUse">
<stop offset="0.23" stop-color="#6B1D5D"/>
<stop offset="0.779815" stop-color="#FFBA45"/>
</linearGradient>
<linearGradient id="paint2_linear_570_28" x1="35.0559" y1="-28.0968" x2="5.13298" y2="231.301" gradientUnits="userSpaceOnUse">
<stop offset="0.23" stop-color="#6B1D5D"/>
<stop offset="0.779815" stop-color="#FFBA45"/>
</linearGradient>
<linearGradient id="paint3_linear_570_28" x1="34.8193" y1="29.0104" x2="28.0625" y2="87.584" gradientUnits="userSpaceOnUse">
<stop offset="0.23" stop-color="#6B1D5D"/>
<stop offset="0.779815" stop-color="#FFBA45"/>
</linearGradient>
<linearGradient id="paint4_linear_570_28" x1="34.8193" y1="29.0104" x2="28.0625" y2="87.584" gradientUnits="userSpaceOnUse">
<stop offset="0.23" stop-color="#6B1D5D"/>
<stop offset="0.779815" stop-color="#FFBA45"/>
</linearGradient>
<linearGradient id="paint5_linear_570_28" x1="52.5916" y1="35.0197" x2="49.9987" y2="68.7364" gradientUnits="userSpaceOnUse">
<stop offset="0.23" stop-color="#6B1D5D"/>
<stop offset="0.779815" stop-color="#FFBA45"/>
</linearGradient>
<linearGradient id="paint6_linear_570_28" x1="52.5916" y1="35.0197" x2="49.9987" y2="68.7364" gradientUnits="userSpaceOnUse">
<stop offset="0.23" stop-color="#6B1D5D"/>
<stop offset="0.779815" stop-color="#FFBA45"/>
</linearGradient>
<linearGradient id="paint7_linear_570_28" x1="67.2293" y1="41.0291" x2="66.7418" y2="49.48" gradientUnits="userSpaceOnUse">
<stop offset="0.23" stop-color="#6B1D5D"/>
<stop offset="0.779815" stop-color="#FFBA45"/>
</linearGradient>
<linearGradient id="paint8_linear_570_28" x1="67.2293" y1="41.0291" x2="66.7418" y2="49.48" gradientUnits="userSpaceOnUse">
<stop offset="0.23" stop-color="#6B1D5D"/>
<stop offset="0.779815" stop-color="#FFBA45"/>
</linearGradient>
<linearGradient id="paint9_linear_570_28" x1="51.7152" y1="48.3129" x2="48.8195" y2="73.4159" gradientUnits="userSpaceOnUse">
<stop offset="0.23" stop-color="#6B1D5D"/>
<stop offset="0.779815" stop-color="#FFBA45"/>
</linearGradient>
<linearGradient id="paint10_linear_570_28" x1="51.7152" y1="48.3129" x2="48.8195" y2="73.4159" gradientUnits="userSpaceOnUse">
<stop offset="0.23" stop-color="#6B1D5D"/>
<stop offset="0.779815" stop-color="#FFBA45"/>
</linearGradient>
<linearGradient id="paint11_linear_570_28" x1="60.4553" y1="54.5779" x2="59.9679" y2="63.0288" gradientUnits="userSpaceOnUse">
<stop offset="0.23" stop-color="#6B1D5D"/>
<stop offset="0.779815" stop-color="#FFBA45"/>
</linearGradient>
<linearGradient id="paint12_linear_570_28" x1="60.4553" y1="54.5779" x2="59.9679" y2="63.0288" gradientUnits="userSpaceOnUse">
<stop offset="0.23" stop-color="#6B1D5D"/>
<stop offset="0.779815" stop-color="#FFBA45"/>
</linearGradient>
<linearGradient id="paint13_linear_570_28" x1="67.2293" y1="54.5779" x2="66.7418" y2="63.0288" gradientUnits="userSpaceOnUse">
<stop offset="0.23" stop-color="#6B1D5D"/>
<stop offset="0.779815" stop-color="#FFBA45"/>
</linearGradient>
<linearGradient id="paint14_linear_570_28" x1="67.2293" y1="54.5779" x2="66.7418" y2="63.0288" gradientUnits="userSpaceOnUse">
<stop offset="0.23" stop-color="#6B1D5D"/>
<stop offset="0.779815" stop-color="#FFBA45"/>
</linearGradient>
<linearGradient id="paint15_linear_570_28" x1="55.5699" y1="-14.1935" x2="48.7304" y2="45.0974" gradientUnits="userSpaceOnUse">
<stop offset="0.23" stop-color="#6B1D5D"/>
<stop offset="0.779815" stop-color="#FFBA45"/>
</linearGradient>
<clipPath id="clip0_570_28">
<rect width="70" height="70" fill="white" transform="translate(26 34)"/>
</clipPath>
</defs>
</svg>
